<svg width="24" height="25" viewBox="0 0 24 25" fill="none" xmlns="http://www.w3.org/2000/svg">
<path d="M10.8584 1.02749C5.52201 1.57192 1.21345 5.49093 0.204361 10.71C0.0307041 11.6158 -0.0209235 12.2917 0.00723701 13.3618C0.0541712 15.1782 0.439032 16.7223 1.24161 18.3368C2.18968 20.2471 3.57893 21.824 5.33427 22.988C6.83147 23.983 8.35214 24.5791 10.2248 24.8935C10.835 24.9968 12.4542 25.0343 13.1629 24.9639C17.9361 24.4805 21.9161 21.289 23.4133 16.7458C23.8404 15.4551 23.9953 14.4507 24 12.991C24 11.583 23.8498 10.588 23.4556 9.35362C22.5169 6.41554 20.4799 3.9421 17.7578 2.4449C16.5422 1.77374 15.1294 1.3044 13.6745 1.0885C13.1019 1.00402 11.4357 0.966473 10.8584 1.02749ZM13.2661 6.56573C15.5472 7.00221 17.4715 8.68246 18.2036 10.8743C18.4101 11.4844 18.4852 11.8928 18.5509 12.761C18.6213 13.6152 18.6495 13.7185 19.0484 14.3521C19.1517 14.5164 19.2925 14.8261 19.3582 15.0327C19.9214 16.7927 18.8842 18.6466 17.0725 19.1159C16.697 19.2145 15.9743 19.2145 15.5753 19.1206C15.0684 18.9986 14.6742 19.0221 14.0687 19.2098C13.2661 19.4632 12.7968 19.5336 11.9614 19.529C11.4122 19.529 11.1166 19.5008 10.7552 19.4257C8.71353 18.9986 7.07083 17.7455 6.14623 15.9056C5.74729 15.1124 5.51731 14.2066 5.46099 13.2022C5.42344 12.4841 5.35774 12.2682 5.03858 11.7473C4.70535 11.2075 4.54577 10.71 4.51292 10.128C4.48007 9.53666 4.57394 9.10487 4.85554 8.53227C5.22163 7.7954 5.86463 7.23219 6.6672 6.95059C7.11777 6.79101 7.96728 6.74877 8.45539 6.86141C8.9529 6.97875 9.34245 6.95997 9.8775 6.7957C11.1306 6.40615 12.0975 6.34513 13.2661 6.56573Z" fill="#456987"/>
<path d="M11.5152 8.30232C10.9989 8.35395 10.3512 8.5323 9.97106 8.73412C9.57212 8.94063 9.0887 9.43343 8.91035 9.80421C8.41285 10.8555 8.60997 12.0477 9.39846 12.7329C9.8678 13.1459 10.3512 13.3524 11.6748 13.6951C12.5806 13.9297 13.1673 14.1409 13.3456 14.2958C13.8384 14.7088 13.5756 15.2674 12.8153 15.4269C12.4445 15.502 11.6935 15.4926 11.3932 15.4035C10.9661 15.2767 10.5296 15.0186 10.1166 14.6384C9.60967 14.1785 9.3703 14.094 8.93851 14.2207C8.37999 14.3897 8.09839 15.0937 8.3753 15.6334C8.5865 16.0371 9.61905 16.835 10.2949 17.1213C10.9661 17.3982 11.1444 17.4263 12.1723 17.4216C13.2236 17.4169 13.5615 17.3559 14.1904 17.0555C15.1197 16.6191 15.6548 15.6381 15.5562 14.5493C15.453 13.451 14.8616 12.7094 13.6976 12.2448C13.3691 12.1134 13.1626 12.0571 11.7639 11.6816C11.0787 11.5032 10.8018 11.3765 10.6892 11.1888C10.4357 10.7711 10.7736 10.4003 11.5387 10.2689C12.3506 10.1234 13.2283 10.4331 13.9182 11.1043C14.2702 11.4516 14.4439 11.5361 14.7818 11.5361C15.5421 11.5361 15.9927 10.7241 15.5985 10.0577C15.4577 9.8136 14.8804 9.25978 14.5002 9.00633C13.9182 8.61209 13.3222 8.3868 12.6181 8.30232C12.1817 8.246 12.1253 8.246 11.5152 8.30232Z" fill="#456987"/>
</svg>
