<svg width="24" height="25" viewBox="0 0 24 25" fill="none" xmlns="http://www.w3.org/2000/svg">
<path d="M10.8853 1.02439C4.59625 1.63452 -0.195668 7.04596 0.00614618 13.321C0.0671598 15.1467 0.461402 16.7284 1.26397 18.3382C2.43261 20.6942 4.30057 22.5622 6.66133 23.7355C10.4864 25.641 15.0108 25.3782 18.5778 23.0456C19.9717 22.1351 21.2952 20.7834 22.1963 19.3472C22.5436 18.8028 23.0599 17.7421 23.2946 17.1038C23.5339 16.4561 23.8109 15.3391 23.9094 14.6117C24.0174 13.8748 24.0314 12.1664 23.9376 11.514C23.6607 9.56629 23.0411 7.90485 22.0133 6.35604C21.5815 5.69897 21.145 5.16393 20.5349 4.5491C18.6622 2.65768 16.3343 1.48434 13.6732 1.09009C13.1006 1.00561 11.4861 0.968067 10.8853 1.02439ZM14.0487 5.59572C15.0296 5.71305 15.7617 5.85385 16.1044 5.99934C17.2777 6.49215 18.3666 7.57162 18.8077 8.68394C19.1269 9.48651 19.3334 11.4906 19.2395 12.8892C19.1691 13.9076 18.9861 15.02 18.8171 15.4611C18.4463 16.4233 17.4091 17.5168 16.3953 18.0237C15.6303 18.4086 14.1472 18.6245 12.1479 18.6526L10.9511 18.6667L10.0828 19.5584C9.34593 20.3141 9.18635 20.4549 9.04086 20.4783C8.70763 20.5394 8.38848 20.3516 8.29931 20.0278C8.27115 19.9386 8.25237 19.5115 8.25237 19.0703V18.2725L7.952 18.1645C7.79243 18.1082 7.48736 17.9533 7.28554 17.8313C6.08874 17.0897 5.24863 15.9586 5.01865 14.7759C4.67134 12.9971 4.67134 11.0822 5.01865 9.35509C5.30964 7.91423 6.6097 6.4546 8.04587 5.94772C8.49174 5.79284 9.81057 5.59102 10.8807 5.51124C11.4157 5.47369 13.462 5.53001 14.0487 5.59572Z" fill="#456987"/>
<path d="M10.7164 6.83033C9.61347 6.9195 8.66072 7.08377 8.32279 7.23865C7.53431 7.60004 6.70359 8.43076 6.42199 9.13946C6.29996 9.45391 6.15916 10.2565 6.08876 11.0309C5.9855 12.2183 6.131 14.1426 6.37974 14.8888C6.64727 15.6773 7.64226 16.6817 8.43074 16.9586C8.55277 17.0008 8.68418 17.0525 8.72173 17.0712C8.78274 17.1041 8.79213 17.32 8.80621 18.5027L8.8156 19.8919H8.92354C8.99864 19.8919 9.3788 19.5305 10.2612 18.6247L11.5002 17.3575H12.1901C13.4479 17.3575 15.2173 17.1322 15.6961 16.9163C16.4376 16.5737 17.1885 15.8416 17.5265 15.1282C17.8175 14.5227 18.0005 13.0068 17.9536 11.6551C17.9207 10.7681 17.7799 9.69797 17.6344 9.26618C17.3622 8.46361 16.4001 7.49209 15.5553 7.17763C15.269 7.07438 14.3068 6.9195 13.4855 6.8491C12.9739 6.80217 11.1717 6.79278 10.7164 6.83033ZM12.8753 8.46361C13.861 8.71706 14.7668 9.44453 15.1986 10.341C15.4238 10.8056 15.5083 11.1247 15.5787 11.7771C15.6397 12.3356 15.6163 12.4295 15.4051 12.4295C15.2549 12.4295 15.2173 12.3309 15.1798 11.8663C15.1188 11.0778 14.9217 10.5334 14.518 10.0077C13.9642 9.28965 13.1945 8.88132 12.223 8.79215C11.993 8.76868 11.8287 8.72644 11.763 8.67482C11.6598 8.59503 11.6598 8.59034 11.7443 8.46361C11.8287 8.3322 11.8334 8.3322 12.2136 8.36036C12.4201 8.37913 12.7205 8.42607 12.8753 8.46361ZM9.76835 8.86255C10.0171 9.05967 10.7962 10.1814 10.8619 10.4301C10.9135 10.6319 10.7962 10.8572 10.5052 11.1247C10.2471 11.3594 10.2236 11.4017 10.2236 11.5706C10.2236 11.7114 10.294 11.9038 10.4677 12.2512C10.6695 12.6595 10.7727 12.7956 11.1106 13.1335C11.4298 13.448 11.5988 13.5794 11.9132 13.7343C12.1338 13.8422 12.4013 13.9455 12.514 13.9595C12.7158 13.9924 12.7158 13.9924 13.0349 13.6545C13.3447 13.3353 13.3682 13.3212 13.5747 13.3212C13.7624 13.3212 13.8469 13.3635 14.3162 13.6779C15.039 14.166 15.2737 14.3726 15.3394 14.5697C15.391 14.7199 15.3816 14.7621 15.2502 15.0343C15.0671 15.4051 14.687 15.7665 14.3444 15.8932C14.1144 15.9777 14.0815 15.9777 13.861 15.9167C13.5371 15.8228 12.5656 15.3535 12.0681 15.0531C10.4254 14.0581 9.31309 12.744 8.49176 10.8197C8.21954 10.1908 8.19138 9.9608 8.35095 9.65573C8.55277 9.25679 9.18637 8.76868 9.50083 8.76868C9.58061 8.76868 9.70264 8.81092 9.76835 8.86255ZM12.6876 9.35535C13.6873 9.56655 14.4101 10.2659 14.6119 11.2327C14.7386 11.8288 14.6964 12.054 14.4617 12.054C14.3256 12.054 14.2599 11.9273 14.2599 11.6692C14.2552 10.7493 13.5324 9.92325 12.5703 9.75429C12.4013 9.72613 12.2183 9.69327 12.162 9.67919C11.9367 9.63695 11.9977 9.28495 12.2324 9.28495C12.3028 9.28495 12.5093 9.31781 12.6876 9.35535ZM13.1429 10.4442C13.4996 10.6366 13.7436 11.059 13.7436 11.4908C13.7436 11.6739 13.6779 11.7724 13.5512 11.7724C13.4339 11.7724 13.3728 11.6739 13.3212 11.3923C13.2931 11.2515 13.2367 11.0872 13.1851 11.0215C13.0584 10.8431 12.8096 10.693 12.6454 10.693C12.3685 10.693 12.1995 10.4771 12.3497 10.3222C12.4389 10.2283 12.8613 10.2893 13.1429 10.4442Z" fill="#456987"/>
</svg>
