<svg width="24" height="25" viewBox="0 0 24 25" fill="none" xmlns="http://www.w3.org/2000/svg">
<path d="M10.8776 1.01027C6.8014 1.40475 3.15721 3.8749 1.31163 7.50031C0.658871 8.78235 0.273789 10.0174 0.0624639 11.5061C-0.0314585 12.1636 -0.0173701 13.8729 0.0906406 14.6055C0.273789 15.9111 0.658871 17.1461 1.25058 18.3343C2.41992 20.6917 4.28897 22.5608 6.65112 23.7348C10.4785 25.6414 15.0055 25.3784 18.5746 23.0445C19.9693 22.1334 21.2936 20.7809 22.1953 19.3439C22.5428 18.7992 23.0594 17.7378 23.2942 17.0992C23.5337 16.4511 23.8107 15.3334 23.9094 14.6055C24.0174 13.8682 24.0315 12.1589 23.9375 11.5061C23.6605 9.55721 23.0406 7.89478 22.0121 6.34506C21.5801 5.68761 21.1433 5.15225 20.5329 4.53706C18.6591 2.64452 16.3298 1.47049 13.6671 1.07602C13.0942 0.991489 11.4787 0.95392 10.8776 1.01027ZM12.911 9.205C13.0144 9.25666 13.1412 9.35997 13.1928 9.43041C13.2867 9.55721 13.2914 9.62295 13.2914 11.121C13.2961 12.7694 13.3243 13.0136 13.5075 13.145C13.6342 13.2343 13.7188 13.2014 13.963 12.9666C14.5171 12.4406 15.2403 11.3042 15.6724 10.2757C15.8039 9.95638 15.9635 9.64174 16.0293 9.58069C16.1842 9.42572 16.4144 9.40693 17.8936 9.42572C18.9972 9.43981 19.1804 9.4492 19.3119 9.52434C19.5232 9.63704 19.5514 9.78732 19.4293 10.163C19.2837 10.6138 19.0113 11.0459 18.1097 12.2716C17.0718 13.6804 16.9826 13.8542 17.1235 14.1265C17.1516 14.1829 17.532 14.5868 17.9641 15.0282C18.7155 15.7937 19.2273 16.4135 19.4246 16.7939C19.5983 17.1367 19.5044 17.4467 19.1804 17.6157C18.9925 17.7097 18.1848 17.7425 17.161 17.6956C16.0246 17.6392 15.9635 17.6111 15.0243 16.6249C14.287 15.8453 14.1133 15.7091 13.8878 15.7091C13.6014 15.7091 13.5168 15.8876 13.3619 16.7892C13.2773 17.287 13.2539 17.3387 13.1083 17.4749C12.9721 17.6064 12.911 17.6251 12.5682 17.658C11.3285 17.766 9.98536 17.3997 8.971 16.6718C7.93316 15.9298 6.82488 14.4975 5.73068 12.4735C5.24228 11.5718 4.48621 9.94229 4.48621 9.78732C4.48621 9.72157 4.52847 9.60887 4.58483 9.53842L4.67875 9.41633H5.85278C6.5478 9.41633 7.11134 9.43511 7.22874 9.46798C7.5246 9.54312 7.68896 9.74036 7.93786 10.3321C8.48261 11.6141 9.48758 13.1075 9.86796 13.2014C10.1169 13.2624 10.2202 13.084 10.3188 12.4265C10.3751 12.0274 10.3376 10.5716 10.2624 10.3039C10.2014 10.0879 9.99945 9.90003 9.71769 9.80141C9.5768 9.74975 9.48288 9.684 9.47349 9.63704C9.43592 9.45389 9.7036 9.21909 10.0511 9.12986C10.1309 9.11108 10.7649 9.09699 11.4599 9.10169C12.6246 9.11108 12.742 9.12047 12.911 9.205Z" fill="#456987"/>
</svg>
