<svg width="60" height="60" viewBox="0 0 60 60" fill="none" xmlns="http://www.w3.org/2000/svg">
<path d="M27.1991 0.116413C17.0272 1.10079 7.93346 7.26485 3.32799 16.3117C1.69909 19.5109 0.738149 22.593 0.210805 26.3078C-0.0235703 27.9484 0.011586 32.2141 0.281117 34.0422C0.738149 37.3 1.69909 40.382 3.17565 43.3469C6.09362 49.2297 10.7577 53.8938 16.6522 56.8234C26.203 61.5813 37.4999 60.925 46.4061 55.1008C49.8866 52.8273 53.1913 49.4523 55.4413 45.8664C56.3085 44.507 57.5975 41.8586 58.1835 40.2648C58.7811 38.6477 59.4725 35.8586 59.7186 34.0422C59.9882 32.2023 60.0233 27.9367 59.7889 26.3078C59.0975 21.4445 57.5507 17.2961 54.9843 13.4289C53.9061 11.7883 52.8163 10.4524 51.2928 8.91719C46.6171 4.19454 40.8046 1.26485 34.16 0.280476C32.7303 0.0695381 28.6991 -0.0242119 27.1991 0.116413ZM47.9999 15.7141C48.3866 15.9484 48.7499 16.5578 48.7499 16.968C48.7499 17.2727 42.9139 43.0891 42.7499 43.5109C42.4686 44.2375 41.3905 44.7648 40.6171 44.5422C40.3944 44.4836 38.1796 43.0656 35.7069 41.3781C33.2225 39.6906 31.16 38.3195 31.1132 38.3195C31.078 38.3195 30.0819 39.2336 28.91 40.3469C26.203 42.9133 26.2382 42.8898 25.535 42.8898C25.0428 42.8898 24.8905 42.8313 24.5507 42.5031C24.1991 42.1633 23.9999 41.6594 22.5467 37.382C21.6678 34.7688 20.8827 32.5773 20.8124 32.4953C20.7421 32.425 18.703 31.8273 16.2889 31.1711C12.328 30.1047 11.8592 29.9523 11.578 29.6359C11.3671 29.425 11.2499 29.1672 11.2499 28.9445C11.2499 28.1125 10.9569 28.2414 23.6132 23.6828C30.0585 21.3742 37.8163 18.5734 40.8397 17.4836C43.8749 16.3938 46.453 15.468 46.5819 15.4328C46.9452 15.3391 47.6014 15.468 47.9999 15.7141Z" fill="white"/>
<path d="M32.0625 26.0728C26.8359 29.0728 22.5352 31.5924 22.4766 31.6627C22.4297 31.7447 22.3828 31.9556 22.3828 32.1197C22.3828 32.5181 24.9023 39.8775 25.0547 39.9361C25.207 39.983 25.2422 39.772 25.5469 37.0885C25.6875 35.9283 25.8164 34.8619 25.8516 34.7213C25.8867 34.5455 28.6172 32.2369 33.9609 27.8775C38.3906 24.2564 42.0469 21.233 42.0937 21.1627C42.2578 20.9283 42.1289 20.6822 41.8359 20.6588C41.6367 20.6353 38.5781 22.3346 32.0625 26.0728Z" fill="white"/>
</svg>
