<svg width="60" height="60" viewBox="0 0 60 60" fill="none" xmlns="http://www.w3.org/2000/svg">
<path d="M27.1992 0.116413C11.4961 1.63985 -0.468785 15.1516 0.0351217 30.8195C0.187465 35.3781 1.17184 39.3273 3.17575 43.3469C6.09372 49.2297 10.7578 53.8938 16.6523 56.8234C26.2031 61.5813 37.5 60.925 46.4062 55.1008C49.8867 52.8273 53.1914 49.4523 55.4414 45.8664C56.3086 44.507 57.5976 41.8586 58.1836 40.2648C58.7812 38.6477 59.4726 35.8586 59.7187 34.0422C59.9883 32.2023 60.0234 27.9367 59.789 26.3078C59.0976 21.4445 57.5508 17.2961 54.9843 13.4289C53.9062 11.7883 52.8164 10.4524 51.2929 8.91719C46.6172 4.19454 40.8047 1.26485 34.1601 0.280476C32.7304 0.0695381 28.6992 -0.0242119 27.1992 0.116413ZM35.0976 11.5305C37.5468 11.8234 39.375 12.175 40.2304 12.5383C43.1601 13.7688 45.8789 16.4641 46.9804 19.2414C47.7773 21.2453 48.2929 26.2492 48.0586 29.7414C47.8828 32.2844 47.4258 35.0617 47.0039 36.1633C46.0781 38.5656 43.4883 41.2961 40.957 42.5617C39.0468 43.5227 35.3437 44.0617 30.3515 44.132L27.3633 44.1672L25.1953 46.3938C23.3554 48.2805 22.957 48.632 22.5937 48.6906C21.7617 48.843 20.9648 48.3742 20.7422 47.5656C20.6718 47.343 20.625 46.2766 20.625 45.175V43.1828L19.875 42.9133C19.4765 42.7727 18.7148 42.3859 18.2109 42.0813C15.2226 40.2297 13.125 37.4055 12.5507 34.4523C11.6836 30.0109 11.6836 25.2297 12.5507 20.9172C13.2773 17.3195 16.5234 13.675 20.1093 12.4094C21.2226 12.0227 24.5156 11.5188 27.1875 11.3195C28.5234 11.2258 33.6328 11.3664 35.0976 11.5305Z" fill="white"/>
<path d="M26.7772 14.6133C24.0233 14.8359 21.6444 15.2461 20.8006 15.6328C18.8319 16.5352 16.7577 18.6094 16.0546 20.3789C15.7499 21.1641 15.3983 23.168 15.2225 25.1016C14.9647 28.0664 15.328 32.8711 15.9491 34.7344C16.6171 36.7031 19.1014 39.2109 21.0702 39.9023C21.3749 40.0078 21.703 40.1367 21.7967 40.1836C21.9491 40.2656 21.9725 40.8047 22.0077 43.7578L22.0311 47.2266H22.3006C22.4881 47.2266 23.4374 46.3242 25.6405 44.0625L28.7342 40.8984H30.4569C33.5975 40.8984 38.0155 40.3359 39.2108 39.7969C41.0624 38.9414 42.9374 37.1133 43.7811 35.332C44.5077 33.8203 44.9647 30.0352 44.8475 26.6602C44.7655 24.4453 44.4139 21.7734 44.0506 20.6953C43.371 18.6914 40.9686 16.2656 38.8592 15.4805C38.1444 15.2227 35.7421 14.8359 33.6913 14.6602C32.4139 14.543 27.9139 14.5195 26.7772 14.6133ZM32.1678 18.6914C34.6288 19.3242 36.8905 21.1406 37.9686 23.3789C38.5311 24.5391 38.7421 25.3359 38.9178 26.9648C39.0702 28.3594 39.0116 28.5937 38.4842 28.5937C38.1092 28.5937 38.0155 28.3477 37.9217 27.1875C37.7694 25.2187 37.2772 23.8594 36.2694 22.5469C34.8866 20.7539 32.9647 19.7344 30.5389 19.5117C29.9647 19.4531 29.5546 19.3477 29.3905 19.2187C29.1327 19.0195 29.1327 19.0078 29.3436 18.6914C29.5546 18.3633 29.5663 18.3633 30.5155 18.4336C31.0311 18.4805 31.7811 18.5977 32.1678 18.6914ZM24.41 19.6875C25.0311 20.1797 26.9764 22.9805 27.1405 23.6016C27.2694 24.1055 26.9764 24.668 26.2499 25.3359C25.6053 25.9219 25.5467 26.0273 25.5467 26.4492C25.5467 26.8008 25.7225 27.2812 26.1561 28.1484C26.66 29.168 26.9178 29.5078 27.7616 30.3516C28.5585 31.1367 28.9803 31.4648 29.7655 31.8516C30.3163 32.1211 30.9842 32.3789 31.2655 32.4141C31.7694 32.4961 31.7694 32.4961 32.5663 31.6523C33.3397 30.8555 33.3983 30.8203 33.9139 30.8203C34.3827 30.8203 34.5936 30.9258 35.7655 31.7109C37.5702 32.9297 38.1561 33.4453 38.3202 33.9375C38.4491 34.3125 38.4256 34.418 38.0975 35.0977C37.6405 36.0234 36.6913 36.9258 35.8358 37.2422C35.2616 37.4531 35.1796 37.4531 34.6288 37.3008C33.8202 37.0664 31.3944 35.8945 30.1522 35.1445C26.0506 32.6602 23.2733 29.3789 21.2225 24.5742C20.5428 23.0039 20.4725 22.4297 20.871 21.668C21.3749 20.6719 22.9569 19.4531 23.7421 19.4531C23.9413 19.4531 24.246 19.5586 24.41 19.6875ZM31.6991 20.918C34.1952 21.4453 35.9999 23.1914 36.5038 25.6055C36.8202 27.0937 36.7147 27.6562 36.1288 27.6562C35.7889 27.6562 35.6249 27.3398 35.6249 26.6953C35.6131 24.3984 33.8085 22.3359 31.4061 21.9141C30.9842 21.8437 30.5272 21.7617 30.3866 21.7266C29.8241 21.6211 29.9764 20.7422 30.5624 20.7422C30.7381 20.7422 31.2538 20.8242 31.6991 20.918ZM32.8358 23.6367C33.7264 24.1172 34.3358 25.1719 34.3358 26.25C34.3358 26.707 34.1717 26.9531 33.8553 26.9531C33.5624 26.9531 33.41 26.707 33.2811 26.0039C33.2108 25.6523 33.0702 25.2422 32.9413 25.0781C32.6249 24.6328 32.0038 24.2578 31.5936 24.2578C30.9022 24.2578 30.4803 23.7187 30.8553 23.332C31.078 23.0977 32.1327 23.25 32.8358 23.6367Z" fill="white"/>
</svg>
