<svg width="60" height="60" viewBox="0 0 60 60" fill="none" xmlns="http://www.w3.org/2000/svg">
<path d="M27.1991 0.116413C17.0272 1.10079 7.93346 7.26485 3.32799 16.3117C1.69909 19.5109 0.738149 22.593 0.210805 26.3078C-0.0235703 27.9484 0.011586 32.2141 0.281117 34.0422C0.738149 37.3 1.69909 40.382 3.17565 43.3469C6.09362 49.2297 10.7577 53.8938 16.6522 56.8234C26.203 61.5813 37.4999 60.925 46.4061 55.1008C49.8866 52.8273 53.1913 49.4523 55.4413 45.8664C56.3085 44.507 57.5975 41.8586 58.1835 40.2648C58.7811 38.6477 59.4725 35.8586 59.7186 34.0422C59.9882 32.2023 60.0233 27.9367 59.7889 26.3078C59.0975 21.4445 57.5507 17.2961 54.9843 13.4289C53.9061 11.7883 52.8163 10.4524 51.2928 8.91719C46.6171 4.19454 40.8046 1.26485 34.16 0.280476C32.7303 0.0695381 28.6991 -0.0242119 27.1991 0.116413ZM32.3436 11.4133C34.6757 11.7297 36.4335 12.2805 38.5663 13.382C47.496 17.9641 51.1405 29.0266 46.6757 38.0266C44.8475 41.7063 42.0702 44.5305 38.4257 46.3938C33.5272 48.8898 27.7616 49.0891 22.6522 46.9211L21.6913 46.5109L16.9686 47.6242C14.3671 48.2453 12.1757 48.7492 12.0819 48.7492C11.8006 48.7492 11.4842 48.3859 11.4842 48.0578C11.4842 47.8938 11.9178 45.6438 12.4452 43.0773C13.3944 38.4602 13.3944 38.3898 13.2186 37.9211C13.1132 37.6516 12.8319 36.9367 12.5975 36.3273C11.121 32.5422 11.0389 28.0422 12.3632 23.9641C12.8085 22.6164 13.9569 20.343 14.8007 19.1359C15.703 17.8469 17.9178 15.632 19.1835 14.7297C22.9921 12.0344 27.8202 10.8156 32.3436 11.4133Z" fill="white"/>
<path d="M29.1209 15.3154C26.9295 15.4912 25.1951 15.9834 23.3201 16.9444C16.992 20.1904 13.9686 27.5498 16.1717 34.3701C16.3592 34.9561 16.7811 35.9522 17.0975 36.585L17.66 37.71L17.0857 40.499C16.7693 42.0342 16.535 43.3467 16.5467 43.4287C16.5701 43.5108 17.4842 43.3467 19.3943 42.8897L22.2068 42.2217L23.3201 42.7725C28.2537 45.2217 33.7498 44.8819 38.2498 41.835C43.535 38.2842 45.8436 31.3701 43.8045 25.2529C42.3514 20.8936 38.8357 17.4014 34.5115 16.0186C33.2576 15.6201 32.6131 15.4912 31.2889 15.3506C30.1873 15.2334 30.035 15.2334 29.1209 15.3154ZM24.4334 21.0225C24.8787 21.21 24.9842 21.3975 26.0272 23.7529C26.4022 24.6319 26.7186 25.5108 26.7186 25.7334C26.7186 26.0147 26.5545 26.3311 26.074 26.9639C25.2889 27.9951 25.242 28.3701 25.7928 29.249C26.2381 29.9639 28.3592 32.0615 29.5311 32.9522C31.3592 34.3467 32.1678 34.6748 32.8475 34.3233C32.9881 34.2412 33.4334 33.8779 33.8318 33.5029C34.4178 32.9404 34.617 32.8115 34.9451 32.8115C35.1561 32.8115 36.2342 33.0811 37.324 33.3975C39.0232 33.8897 39.3631 34.0186 39.6443 34.335C39.867 34.5928 39.9607 34.8154 39.9607 35.1436C39.9607 36.1045 38.2381 38.0615 36.949 38.5654C36.0467 38.917 33.9842 38.9522 32.7537 38.624C29.7889 37.8389 26.2147 35.3311 23.6014 32.1904C21.5272 29.7178 20.6951 27.7959 20.6834 25.5459C20.6834 24.3858 20.7068 24.2686 21.0701 23.5186C21.3279 23.0029 21.7498 22.4404 22.2772 21.9014C23.3318 20.835 23.66 20.7061 24.4334 21.0225Z" fill="white"/>
</svg>
