<svg width="60" height="60" viewBox="0 0 60 60" fill="none" xmlns="http://www.w3.org/2000/svg">
<path d="M27.1993 0.116413C17.0275 1.10079 7.93371 7.26485 3.32824 16.3117C1.69933 19.5109 0.738393 22.593 0.211049 26.3078C-0.0233261 27.9484 0.0118301 32.2141 0.281361 34.0422C0.738393 37.3 1.69933 40.382 3.17589 43.3469C6.09386 49.2297 10.7579 53.8938 16.6525 56.8234C26.2032 61.5813 37.5001 60.925 46.4064 55.1008C49.8868 52.8273 53.1915 49.4523 55.4415 45.8664C56.3087 44.507 57.5978 41.8586 58.1837 40.2648C58.7814 38.6477 59.4728 35.8586 59.7189 34.0422C59.9884 32.2023 60.0236 27.9367 59.7892 26.3078C59.0978 21.4445 57.5509 17.2961 54.9845 13.4289C53.9064 11.7883 52.8165 10.4524 51.2931 8.91719C46.6173 4.19454 40.8048 1.26485 34.1603 0.280476C32.7306 0.0695381 28.6993 -0.0242119 27.1993 0.116413ZM32.2736 20.5656C32.5314 20.6945 32.8478 20.9523 32.9767 21.1281C33.2111 21.4445 33.2228 21.6086 33.2228 25.3469C33.2345 29.4602 33.3048 30.0695 33.7618 30.3977C34.0782 30.6203 34.2892 30.5383 34.8986 29.9523C36.2814 28.6398 38.0861 25.8039 39.1642 23.2375C39.4923 22.4406 39.8907 21.6555 40.0548 21.5031C40.4415 21.1164 41.0157 21.0695 44.7071 21.1164C47.4611 21.1516 47.9181 21.175 48.2462 21.3625C48.7736 21.6438 48.8439 22.0188 48.5392 22.9563C48.1759 24.0813 47.4962 25.1594 45.2462 28.218C42.6564 31.7336 42.4337 32.1672 42.7853 32.8469C42.8556 32.9875 43.8048 33.9953 44.8829 35.0969C46.7579 37.007 48.0353 38.5539 48.5275 39.5031C48.9611 40.3586 48.7267 41.132 47.9181 41.5539C47.4493 41.7883 45.4337 41.8703 42.879 41.7531C40.0431 41.6125 39.8907 41.5422 37.547 39.0813C35.7071 37.1359 35.2736 36.7961 34.7111 36.7961C33.9962 36.7961 33.7853 37.2414 33.3986 39.4914C33.1876 40.7336 33.129 40.8625 32.7657 41.2023C32.4259 41.5305 32.2736 41.5773 31.4181 41.6594C28.3243 41.9289 24.9728 41.0148 22.4415 39.1984C19.8517 37.3469 17.0861 33.7727 14.3556 28.7219C13.1368 26.4719 11.2501 22.4055 11.2501 22.0188C11.2501 21.8547 11.3556 21.5734 11.4962 21.3977L11.7306 21.093H14.6603C16.3946 21.093 17.8009 21.1398 18.0939 21.2219C18.8321 21.4094 19.2423 21.9016 19.8634 23.3781C21.2228 26.5773 23.7306 30.3039 24.6798 30.5383C25.3009 30.6906 25.5587 30.2453 25.8048 28.6047C25.9454 27.6086 25.8517 23.9758 25.6642 23.3078C25.5118 22.7688 25.0079 22.3 24.3048 22.0539C23.9532 21.925 23.7189 21.7609 23.6954 21.6438C23.6017 21.1867 24.2696 20.6008 25.1368 20.3781C25.3361 20.3313 26.9181 20.2961 28.6525 20.3078C31.5587 20.3313 31.8517 20.3547 32.2736 20.5656Z" fill="white"/>
</svg>
