<svg width="100" height="100" viewBox="0 0 100 100" fill="none" xmlns="http://www.w3.org/2000/svg">
<path d="M100 50C100 77.6142 77.6142 100 50 100C22.3858 100 0 77.6142 0 50C0 22.3858 22.3858 0 50 0C77.6142 0 100 22.3858 100 50Z" fill="#454887"/>
<path d="M24.5537 17.7158C22.7764 18.0967 21.2402 18.9346 19.8691 20.2676C17.9014 22.1846 17 24.4697 17 27.5293V28.9258H32.2344L32.2471 41.2656V53.6182L35.4209 56.2207C37.1602 57.6553 38.6455 58.8359 38.6963 58.8613C38.7598 58.8867 39.8135 58.0742 41.0322 57.0586C42.2637 56.0303 43.292 55.2051 43.3301 55.2051C43.3809 55.2051 44.4092 56.043 45.6406 57.0586C46.8594 58.0742 47.9385 58.874 48.0146 58.8486C48.1035 58.8105 49.1318 57.9727 50.2998 56.9951C51.4805 56.0049 52.4834 55.2051 52.5215 55.2051C52.5723 55.2051 53.6133 56.043 54.832 57.0459C56.0508 58.0615 57.0791 58.8867 57.1299 58.8867C57.168 58.8867 58.1963 58.0615 59.415 57.0459C60.6338 56.043 61.6875 55.2305 61.7764 55.2686C61.8652 55.2939 62.8936 56.1191 64.0869 57.1094C65.2676 58.0869 66.2705 58.8867 66.3213 58.8867C66.3721 58.8867 67.4004 58.0615 68.6191 57.0459C69.8252 56.0303 70.8535 55.2051 70.9043 55.2051C70.9424 55.2051 71.9453 56.0176 73.1387 56.9951C74.332 57.9854 75.3857 58.7979 75.4873 58.8105C75.5762 58.8105 77.0742 57.6553 78.8135 56.2207L81.9873 53.6182V39.8691C82 27.7705 81.9746 26.0059 81.7969 25.1426C81.0225 21.3975 78.1025 18.4775 74.3574 17.7031C73.4814 17.5254 70.8535 17.5 49.4111 17.5127C28.6289 17.5254 25.3281 17.5508 24.5537 17.7158ZM64.3408 22.1211C63.833 22.9209 63.2236 24.4443 63.2109 24.8887C63.2109 25.1045 62.1191 25.1172 42.1875 25.1172H21.1768L21.2529 24.8252C21.5449 23.8857 22.8652 22.4512 23.9316 21.9434C25.2266 21.3086 24.4395 21.334 45.2725 21.3213L64.8486 21.3086L64.3408 22.1211ZM73.6465 21.4482C75.8301 21.918 77.582 23.6699 78.0518 25.8535C78.1533 26.3232 78.1914 30.2207 78.1914 39.1455V51.7773L76.8965 52.8564C76.1729 53.4531 75.5254 53.9102 75.4365 53.8721C75.3477 53.8467 74.3193 53.0215 73.126 52.0312C71.9453 51.0537 70.9424 50.2539 70.9043 50.2539C70.8535 50.2539 69.8252 51.0791 68.6191 52.0947C67.4004 53.1104 66.3721 53.9355 66.3213 53.9355C66.2705 53.9355 65.2676 53.1357 64.0742 52.1455C62.8936 51.168 61.8525 50.3428 61.7764 50.3174C61.6875 50.2793 60.6338 51.0791 59.4277 52.0947C58.209 53.1104 57.1807 53.9355 57.1299 53.9355C57.0918 53.9355 56.0508 53.1104 54.832 52.0947C53.6133 51.0918 52.5723 50.2539 52.5215 50.2539C52.4834 50.2539 51.4805 51.0537 50.2998 52.0439C49.1318 53.0215 48.1035 53.8594 48.0146 53.8975C47.9385 53.9229 46.8594 53.123 45.6406 52.1074C44.4092 51.0918 43.3809 50.2539 43.3301 50.2539C43.292 50.2539 42.2637 51.0791 41.0322 52.1074C39.8135 53.123 38.7598 53.9355 38.6963 53.9102C38.6455 53.8848 38.0234 53.4023 37.3125 52.8184L36.043 51.7646V28.9258H66.7656V27.7197C66.7656 25.5361 67.2354 24.2666 68.4795 23.0225C69.876 21.6133 71.7422 21.042 73.6465 21.4482Z" fill="white"/>
<path d="M43.6602 37.5586H70.5742V33.623H43.6602V37.5586Z" fill="white"/>
<path d="M43.6602 45.1758H70.5742V41.2402H43.6602V45.1758Z" fill="white"/>
<path d="M32.2344 71.0742H17V72.4707C17 74.0576 17.2412 75.4668 17.7236 76.5967C18.6758 78.8565 20.6436 80.8242 22.916 81.7764C24.7061 82.5381 23.3984 82.5 49.5 82.5C75.3096 82.5 74.2178 82.5254 75.957 81.8525C78.1406 80.9893 80.1846 79.0215 81.1875 76.7998C81.9365 75.1367 81.9238 75.3779 81.9619 66.5928L82.0127 58.4932L78.8008 61.1719C77.0361 62.6318 75.5508 63.8379 75.5 63.8379C75.4619 63.8379 74.459 63.0381 73.2783 62.0479C72.1104 61.0703 71.082 60.2324 70.9932 60.1943C70.917 60.169 69.8379 60.9688 68.6191 61.9844C67.3877 63 66.3594 63.8379 66.3086 63.8379C66.2705 63.8379 65.2422 63.0127 64.0234 61.9971C62.8047 60.9815 61.7637 60.1563 61.7129 60.1563C61.6621 60.1563 60.6211 60.9941 59.4023 61.9971C58.1836 63.0127 57.1553 63.8379 57.1172 63.8379C57.0791 63.8379 56.0508 63.0127 54.832 61.9971C53.6133 60.9815 52.5469 60.1816 52.458 60.207C52.3691 60.2451 51.3408 61.0703 50.1475 62.0606C48.9668 63.0381 47.9639 63.8379 47.9258 63.8379C47.875 63.8379 46.8467 63.0127 45.6406 61.9971C44.4219 60.9815 43.3936 60.1563 43.3428 60.1563C43.292 60.1563 42.2891 60.9688 41.0957 61.9463C39.9023 62.9365 38.8486 63.749 38.7598 63.7617C38.6709 63.7617 37.1729 62.5938 35.4209 61.1465L32.2344 58.5059V71.0742ZM45.6406 66.9482C46.8467 67.9639 47.875 68.7891 47.9258 68.7891C47.9639 68.7891 48.9668 67.9893 50.1475 67.0117C51.3408 66.0215 52.3691 65.1963 52.458 65.1582C52.5469 65.1328 53.6133 65.9326 54.832 66.9482C56.0508 67.9639 57.0791 68.7891 57.1172 68.7891C57.1553 68.7891 58.1836 67.9639 59.4023 66.9482C60.6211 65.9453 61.6621 65.1074 61.7129 65.1074C61.7637 65.1074 62.8047 65.9326 64.0234 66.9482C65.2422 67.9639 66.2705 68.7891 66.3086 68.7891C66.3594 68.7891 67.3877 67.9512 68.6191 66.9356C69.8379 65.9199 70.917 65.1201 70.9932 65.1455C71.082 65.1836 72.1104 66.0215 73.2783 66.999C74.459 67.9893 75.4619 68.7891 75.5 68.7891C75.5508 68.7891 76.1602 68.3066 76.8584 67.7227L78.1279 66.6563L78.166 69.9824C78.1914 72.0899 78.1533 73.5752 78.0645 74.0576C77.7471 75.7207 76.6426 77.1934 75.1572 77.9805C72.8721 79.1738 70.2822 78.793 68.4795 76.9775C67.2354 75.7334 66.7656 74.4639 66.7656 72.2803V71.0742H36.043V66.6055L36.7158 67.1641C38.1885 68.4082 38.6709 68.7891 38.7344 68.7891C38.7725 68.7891 39.8008 67.9639 41.0068 66.9482C42.2256 65.9453 43.2666 65.1201 43.3301 65.1074C43.3809 65.1074 44.4219 65.9326 45.6406 66.9482ZM63.2109 75.0986C63.2236 75.5557 63.833 77.0791 64.3408 77.8789L64.8486 78.6914H45.3359C24.3506 78.6914 25.2646 78.7168 23.9062 78.044C22.8145 77.4981 21.5449 76.1143 21.2529 75.1621L21.1768 74.8828H42.1875C62.1191 74.8828 63.2109 74.8955 63.2109 75.0986Z" fill="white"/>
</svg>
