<svg width="100" height="100" viewBox="0 0 100 100" fill="none" xmlns="http://www.w3.org/2000/svg">
<path d="M100 50C100 77.6142 77.6142 100 50 100C22.3858 100 0 77.6142 0 50C0 22.3858 22.3858 0 50 0C77.6142 0 100 22.3858 100 50Z" fill="#454887"/>
<path d="M44.5196 17.6479C44.0625 17.8637 19.1379 39.4744 18.7316 40.0077C17.9698 41.0107 17.5 42.3947 17.5 43.6264C17.5127 46.6356 20.1537 49.2385 23.1756 49.2385H23.8486V79.4198L24.2422 80.1943C24.6866 81.0831 25.1437 81.5148 26.1341 81.9846L26.8324 82.3148L36.0125 82.3528C42.0691 82.3782 45.4338 82.3401 45.9036 82.2513C46.7924 82.0989 47.4146 81.6291 47.8209 80.8546L48.1003 80.2959V19.4509L47.8209 18.8922C47.6559 18.5875 47.313 18.1685 47.0464 17.9526C46.6274 17.6225 46.4369 17.559 45.7132 17.5336C45.218 17.5082 44.7101 17.559 44.5196 17.6479ZM44.2403 27.7295C44.1514 27.9453 24.5343 44.9469 24.0645 45.2008C22.49 46.0769 20.6616 44.2358 21.5631 42.6741C21.7536 42.3567 25.6516 38.903 33.0414 32.5036L44.2276 22.8157L44.2657 25.2027C44.2784 26.5105 44.2657 27.6533 44.2403 27.7295ZM44.2911 41.3028V49.7464H40.647C37.2315 49.7464 36.9775 49.7591 36.4696 50.0131C36.076 50.2035 35.8602 50.4194 35.6697 50.813C35.4031 51.3463 35.4031 51.5113 35.4031 61.085V70.8238H27.6578V47.2451L35.9363 40.0585C40.4946 36.0969 44.2403 32.8718 44.2657 32.8591C44.2784 32.8591 44.2911 36.6556 44.2911 41.3028ZM44.2911 78.5691L41.7897 78.5437L39.2757 78.5056L39.2376 66.0242L39.2122 53.5556H44.2911V78.5691ZM35.4031 78.5691H27.6578V74.6329H35.4031V78.5691Z" fill="white"/>
<path d="M53.3696 17.6987C52.7982 17.9907 52.4046 18.397 52.1507 18.9557C51.9221 19.4509 51.9094 20.5809 51.9094 49.8734V80.2959L52.2015 80.8546C52.5951 81.6291 53.2172 82.0989 54.1061 82.2513C54.5758 82.3401 57.9406 82.3782 63.9972 82.3528L73.1773 82.3148L73.8756 81.9846C74.8152 81.5402 75.2723 81.1339 75.7167 80.3213L76.0976 79.6483L76.1611 49.2385H76.834C79.3862 49.2385 81.6463 47.4482 82.3319 44.8834C82.8017 43.1185 82.2684 41.0742 80.9606 39.6775C80.0591 38.6999 55.9471 17.8637 55.5027 17.6733C54.9568 17.432 53.8394 17.4447 53.3696 17.6987ZM67.3238 32.7957C74.4978 39.0173 78.2561 42.3567 78.4466 42.6741C79.3481 44.2358 77.5197 46.0769 75.9452 45.2008C75.7294 45.0866 74.4978 44.0708 73.2153 42.9534C71.9202 41.8361 67.4635 37.9634 63.2988 34.3447L55.7186 27.7676V22.7903L56.0995 23.095C56.3154 23.2601 61.3689 27.6279 67.3238 32.7957ZM64.3908 40.3378L72.3519 47.2324V70.8238H64.6066V61.085C64.6066 51.5113 64.6066 51.3463 64.34 50.813C64.1495 50.4194 63.9337 50.2035 63.5401 50.0131C63.0322 49.7591 62.7782 49.7464 59.3627 49.7464H55.7186V32.8337L56.0741 33.1385C56.2646 33.2908 60.0103 36.5413 64.3908 40.3378ZM60.7721 66.0242L60.734 78.5056L58.2326 78.5437L55.7186 78.5691V53.5556H60.7975L60.7721 66.0242ZM72.3519 78.5691H64.6066V74.6329H72.3519V78.5691Z" fill="white"/>
</svg>
