<svg width="100" height="100" viewBox="0 0 100 100" fill="none" xmlns="http://www.w3.org/2000/svg">
<path d="M100 50C100 77.6142 77.6142 100 50 100C22.3858 100 0 77.6142 0 50C0 22.3858 22.3858 0 50 0C77.6142 0 100 22.3858 100 50Z" fill="#454887"/>
<path d="M32.4695 21.6335C30.2987 22.1159 28.2293 23.7155 27.2645 25.6959C26.4774 27.2828 26.4901 27.2067 26.5282 36.3853C26.579 44.5863 26.579 44.7514 26.8583 45.6273C27.3915 47.3285 28.5721 49.4359 29.41 50.1849C29.6639 50.4134 29.6766 50.5531 29.6766 52.6224V54.8186L25.5761 56.1643C21.4501 57.51 20.6884 57.8401 19.7236 58.7414C19.1523 59.2873 18.2636 60.5949 17.8955 61.4582L17.5527 62.258L17.5146 69.4562C17.4765 77.416 17.4511 77.1113 18.2763 77.708L18.6953 78H81.2824L81.7013 77.708C82.5011 77.124 82.4884 77.2891 82.4884 70.6622C82.4884 64.9875 82.4758 64.5812 82.2345 63.8068C81.7521 62.2453 80.508 60.76 79.0608 60.0364C78.6799 59.8459 77.0041 59.2366 75.3538 58.6907L72.3323 57.6877V54.1712L72.9036 53.4349C73.5891 52.5335 74.4016 50.8958 74.7063 49.7533C74.9094 49.0296 74.9348 48.306 74.9348 43.7865C74.9348 38.0229 74.9221 37.9341 73.9827 35.9663C71.6087 31.0406 65.642 28.8697 60.7163 31.1422C57.8344 32.4752 55.8921 34.7984 55.0542 37.8833C54.8003 38.7973 54.7749 39.3052 54.7241 42.9994C54.648 47.5316 54.7622 48.9662 55.27 50.5023C55.6255 51.5687 56.3364 52.8509 57.0347 53.6888L57.479 54.222V57.7004L56.1714 58.1194L54.8638 58.551L50.6236 56.7737L46.3707 55.0091L46.3326 52.6985L46.3072 50.4007L46.9547 49.6009C47.7926 48.5599 48.7701 46.5668 49.1256 45.1195L49.4176 43.977V33.44C49.4176 21.7224 49.4683 22.446 48.567 21.7985L48.148 21.5065L40.7214 21.4812C34.7293 21.4685 33.1297 21.4938 32.4695 21.6335ZM45.5455 30.9644H30.4129L30.4637 29.4664C30.5145 27.8287 30.616 27.5114 31.4158 26.6354C31.8982 26.1022 32.6346 25.6579 33.2947 25.4928C33.5105 25.442 36.3415 25.404 39.6169 25.3913L45.5455 25.3786V30.9644ZM66.8099 34.5191C67.7875 34.8619 68.6126 35.3951 69.387 36.2202C70.4661 37.3628 71.0628 38.8989 71.0628 40.5874V41.3999L70.2122 41.311C66.5687 40.9682 63.5727 40.4096 60.2465 39.4448C59.1801 39.1401 58.8755 39.0132 58.8755 38.8354C58.8755 38.7085 59.0913 38.188 59.3452 37.6802C60.7416 34.8872 63.9408 33.5289 66.8099 34.5191ZM45.5075 39.2417C45.4567 42.8471 45.4186 43.7231 45.2282 44.3578C44.276 47.684 41.28 50.0072 37.9284 50.0072C34.5896 50.0072 31.4793 47.5951 30.6414 44.3451C30.4764 43.6977 30.4383 42.7709 30.4383 39.229V34.8999H45.5709L45.5075 39.2417ZM59.6372 43.4057C60.767 43.7485 64.1186 44.4848 65.7181 44.7387C67.0638 44.9418 70.2503 45.31 70.7835 45.31C71.0501 45.31 71.0628 45.3481 71.0628 46.6176C71.0628 48.7884 70.5296 50.2611 69.2855 51.5306C68.4349 52.4066 67.6224 52.9017 66.5052 53.2064C63.3441 54.0823 59.9926 52.2542 58.977 49.0804C58.7612 48.433 58.7104 47.8363 58.6469 45.7162C58.6216 44.2817 58.6342 43.1518 58.6977 43.1518C58.7612 43.1518 59.1801 43.266 59.6372 43.4057ZM40.1501 57.6116L37.9284 59.8459L33.6121 55.5296V54.3489C33.6121 53.2571 33.6375 53.1556 33.8406 53.2444C34.6404 53.5618 36.1638 53.8411 37.3825 53.9046C38.8933 53.9808 40.6071 53.7522 41.737 53.3206L42.3083 53.1048L42.3844 55.3899L40.1501 57.6116ZM64.8422 61.7502L61.4145 58.3225V57.5735C61.4145 56.8626 61.4272 56.8372 61.7065 56.9133C63.5092 57.4465 66.099 57.4973 67.5716 57.0276L68.3333 56.7864L68.4095 58.1829L64.8422 61.7502ZM36.0242 74.128H21.2851L21.3232 68.7579C21.3613 63.4767 21.3613 63.3879 21.6532 62.8166C21.8056 62.4865 22.1864 61.9914 22.4784 61.6994C22.9862 61.1916 23.2021 61.1027 27.0106 59.8586L31.0096 58.5383L36.0242 63.5275V74.128ZM47.107 59.6047C48.3766 60.1379 49.4683 60.5949 49.5191 60.633C49.5699 60.6711 49.3795 60.9377 49.1002 61.2297C48.4273 61.9279 47.8941 62.7277 47.5387 63.591C47.2721 64.2638 47.2594 64.4543 47.2213 69.215L47.1832 74.128H39.9597V63.4006L42.3337 61.0266C43.6413 59.7063 44.733 58.6399 44.7584 58.6399C44.7711 58.6399 45.8248 59.0715 47.107 59.6047ZM60.9321 63.426L62.9379 65.4318V74.128H51.1314V69.7101C51.1441 63.6291 50.8775 64.048 55.4858 62.4865C57.1743 61.9152 58.6469 61.4455 58.7485 61.4455C58.8501 61.4328 59.8403 62.3342 60.9321 63.426ZM74.1477 62.4738C78.883 64.048 78.6037 63.6037 78.6545 69.6466L78.6926 74.128H66.8734V65.3048L68.8031 63.3752C69.8695 62.3088 70.7962 61.4328 70.8724 61.4328C70.9359 61.4328 72.4085 61.9025 74.1477 62.4738Z" fill="white"/>
</svg>
