<svg width="100" height="100" viewBox="0 0 100 100" fill="none" xmlns="http://www.w3.org/2000/svg">
<path d="M100 50C100 77.6142 77.6142 100 50 100C22.3858 100 0 77.6142 0 50C0 22.3858 22.3858 0 50 0C77.6142 0 100 22.3858 100 50Z" fill="#454887"/>
<path d="M21.6641 17.7412C19.8232 18.3379 18.249 19.9502 17.7031 21.8037C17.5381 22.3496 17.5 23.1494 17.5 25.6504C17.5 29.1416 17.6016 29.7129 18.4014 30.9824C19.4297 32.582 21.4863 33.75 23.3145 33.75C23.7969 33.75 23.8603 33.7754 23.7842 33.9658C23.3906 34.9941 23.3906 39.9961 23.7969 41.7734C23.8477 42.002 23.8223 42.1289 23.7334 42.1289C23.3652 42.1289 22.1338 42.8398 21.5117 43.4111C20.6611 44.1855 20.0898 45.0742 19.7725 46.0771C19.5566 46.75 19.5312 47.2578 19.5312 50C19.5312 52.7422 19.5566 53.25 19.7725 53.9229C20.0898 54.9258 20.6611 55.8145 21.5117 56.5889C22.1338 57.1602 23.3652 57.8711 23.7334 57.8711C23.835 57.8711 23.8477 57.9981 23.7842 58.2773C23.5937 59.1787 23.4795 60.5498 23.4795 61.9971C23.4795 63.5713 23.6318 65.6406 23.7842 66.0215C23.8603 66.2246 23.7969 66.25 23.251 66.25C21.4736 66.25 19.417 67.4307 18.4014 69.0176C17.6016 70.2871 17.5 70.8584 17.5 74.3623C17.5 77.1172 17.5254 77.625 17.7412 78.2979C18.3252 80.1768 19.9375 81.7637 21.8291 82.2969C22.4639 82.4873 24.5332 82.5 42.9668 82.4619C63.2031 82.4238 63.4062 82.4238 64.5488 82.1572C67.2783 81.5352 69.5254 80.6592 71.5439 79.4531C77.0537 76.1396 80.8115 70.8711 82.1318 64.5742C82.5127 62.7334 82.6143 58.8867 82.3223 56.8936C81.7891 53.2373 80.3418 49.7588 78.082 46.6992C77.168 45.4805 74.832 43.1445 73.6133 42.2305C70.5537 39.9707 67.0752 38.5234 63.4189 37.9902C61.4258 37.6982 57.5791 37.7998 55.7383 38.1807C46.4453 40.1357 39.374 47.5498 38.0029 56.7793C37.7617 58.4805 37.749 61.8574 38.0029 63.5205C38.8281 69.0049 41.875 74.2988 46.1279 77.625L47.0801 78.374L35.6924 78.4121C29.4209 78.4375 24 78.4121 23.6318 78.374C22.8447 78.2852 22.248 77.9043 21.8926 77.2949C21.6514 76.8887 21.626 76.6475 21.626 74.375C21.626 72.1279 21.6514 71.8613 21.8799 71.4678C22.21 70.9092 22.667 70.5791 23.2891 70.4395C23.5557 70.376 26.1836 70.3125 29.1162 70.3125C34.207 70.3125 34.4609 70.2998 34.8672 70.0586C35.4766 69.6777 35.7812 69.1064 35.7812 68.2812C35.7812 67.4561 35.4766 66.8848 34.8672 66.5039C34.4863 66.2754 34.2197 66.25 32.1631 66.25C29.0908 66.2373 28.5703 66.0977 27.9736 65.0947C27.7451 64.7012 27.7197 64.4346 27.7197 62.1875C27.7197 59.9404 27.7451 59.6738 27.9736 59.2803C28.5703 58.2773 29.0908 58.1377 32.1631 58.125C34.2197 58.125 34.4863 58.0996 34.8672 57.8711C35.4766 57.4902 35.7812 56.9189 35.7812 56.0938C35.7812 55.2686 35.4766 54.6973 34.8672 54.3164C34.4736 54.0752 34.207 54.0625 30.1318 54.0625C27.7578 54.0625 25.5869 53.999 25.3203 53.9355C24.6982 53.7959 24.2412 53.4658 23.9111 52.9072C23.6826 52.5137 23.6572 52.2471 23.6572 50C23.6572 47.7529 23.6826 47.4863 23.9111 47.0928C24.2412 46.5342 24.6982 46.2041 25.3203 46.0645C25.5869 46.001 28.6719 45.9375 32.1631 45.9375C38.2695 45.9375 38.5234 45.9248 38.9297 45.6836C39.5391 45.3027 39.8437 44.7314 39.8437 43.9062C39.8437 43.0811 39.5391 42.5098 38.9297 42.1289C38.5361 41.8877 38.2695 41.875 34.1943 41.875C31.8203 41.875 29.6494 41.8115 29.3828 41.748C28.7607 41.6084 28.3037 41.2783 27.9736 40.7197C27.7451 40.3262 27.7197 40.0596 27.7197 37.8125C27.7197 35.5654 27.7451 35.2988 27.9736 34.9053C28.3037 34.3467 28.7607 34.0166 29.3828 33.877C29.6621 33.8008 34.9814 33.75 41.5068 33.75C51.7393 33.75 53.2119 33.7246 53.8213 33.5469C55.7002 33.001 57.2998 31.4141 57.8838 29.5479C58.0996 28.875 58.125 28.3672 58.125 25.625C58.125 22.8828 58.0996 22.375 57.8838 21.7022C57.2998 19.8359 55.7002 18.249 53.8213 17.7031C53.1992 17.5254 51.4219 17.5 37.7617 17.5127C23.2129 17.5127 22.3496 17.5254 21.6641 17.7412ZM52.3359 21.6895C52.958 21.8291 53.415 22.1592 53.7451 22.7178C53.9736 23.1113 53.999 23.3779 53.999 25.625C53.999 27.8721 53.9736 28.1387 53.7451 28.5322C53.415 29.0908 52.958 29.4209 52.3359 29.5605C51.6758 29.7129 23.9492 29.7129 23.2891 29.5605C22.667 29.4209 22.21 29.0908 21.8799 28.5322C21.6514 28.1387 21.626 27.8721 21.626 25.625C21.626 23.3779 21.6514 23.1113 21.8799 22.7178C22.1973 22.1846 22.667 21.8164 23.2256 21.6895C23.835 21.5498 51.7266 21.5371 52.3359 21.6895ZM63.0762 42.1924C64.8408 42.4844 66.3389 42.9795 68.0908 43.8301C73.5625 46.5088 77.2695 51.5615 78.1709 57.5791C78.374 58.874 78.3486 61.667 78.1201 63.0127C77.5869 66.3262 76.1016 69.4873 73.8926 72.0518C69.2334 77.4219 61.9209 79.5801 55.0146 77.6123C53.4785 77.1807 50.8125 75.8477 49.4922 74.8701C45.582 71.9883 42.9541 67.71 42.1924 63.0127C41.9512 61.5527 41.9512 58.7598 42.1924 57.2998C42.7637 53.7197 44.5283 50.1904 47.0674 47.5371C51.1426 43.2842 57.2617 41.2402 63.0762 42.1924Z" fill="white"/>
<path d="M52.9453 48.2227C52.7168 48.3623 52.4248 48.6543 52.2852 48.8828C52.0439 49.2891 52.0312 49.543 52.0312 60.1562C52.0312 70.7695 52.0439 71.0234 52.2852 71.4297C52.666 72.0391 53.2373 72.3438 54.0625 72.3438C54.8877 72.3438 55.459 72.0391 55.8398 71.4297C56.0557 71.0742 56.0938 70.7822 56.0938 69.6396V68.2812H58.4805C61.1338 68.2812 61.4258 68.2051 61.9336 67.3672C62.2764 66.7959 62.2764 65.7041 61.9336 65.1328C61.4258 64.2949 61.1338 64.2188 58.4805 64.2188H56.0938V62.1875H59.2422C62.7461 62.1875 63.1143 62.124 64.625 61.3369C66.1992 60.5117 67.5322 58.8359 68.0781 56.9951C68.4082 55.8779 68.3574 53.999 67.9639 52.8311C67.3672 51.0791 66.1611 49.6191 64.6123 48.8066C63.0381 47.9941 62.8857 47.9688 57.8838 47.9688C53.5928 47.9688 53.3389 47.9814 52.9453 48.2227ZM62.251 52.3232C64.2314 53.1992 64.7266 55.7383 63.1904 57.1982C62.3652 57.9727 62.0352 58.0488 58.9248 58.0996L56.0938 58.1504V52.0059L58.9248 52.0566C61.2607 52.0947 61.832 52.1455 62.251 52.3232Z" fill="white"/>
</svg>
