<svg width="100" height="100" viewBox="0 0 100 100" fill="none" xmlns="http://www.w3.org/2000/svg">
<path d="M100 50C100 77.6142 77.6142 100 50 100C22.3858 100 0 77.6142 0 50C0 22.3858 22.3858 0 50 0C77.6142 0 100 22.3858 100 50Z" fill="#454887"/>
<path d="M28.8223 17.666C27.3867 18.1172 25.9375 19.6074 25.541 21.0293C25.418 21.4941 25.3906 28.3027 25.418 50.2734L25.459 78.916L25.8418 79.6953C26.334 80.707 27.2227 81.5957 28.2344 82.0879L29.0137 82.4707L37.4902 82.5117C45.7207 82.5391 45.9805 82.5391 46.4043 82.2793C47.5801 81.541 47.5801 79.6953 46.4043 78.9844C45.9805 78.7246 45.666 78.7109 38.2012 78.7109C29.6152 78.7109 29.6699 78.7109 29.3691 77.8906C29.2598 77.5625 29.2188 70.1113 29.2188 49.9727C29.2188 19.7988 29.1641 21.7539 30.0391 21.4395C30.3672 21.3301 33.7578 21.2891 41.9473 21.2891H53.418V27.7695C53.418 33.8672 53.4316 34.3047 53.6914 35.1113C54.1973 36.7383 55.373 37.8867 57 38.4062C57.752 38.625 58.3809 38.6523 64.3008 38.6523H70.7812V46.2676C70.7812 53.5957 70.7949 53.9102 71.0547 54.334C71.7656 55.5098 73.6113 55.5098 74.3496 54.334C74.6094 53.9102 74.6094 53.6504 74.582 45.2148L74.541 36.5332L74.1582 35.7812C73.8438 35.1797 72.1484 33.4023 65.4766 26.7168C58.6133 19.8398 57.041 18.3223 56.3574 17.9668L55.5371 17.5293L42.4805 17.502C31.6934 17.4746 29.3145 17.5156 28.8223 17.666ZM62.7148 29.4238L67.9785 34.6875H58.0527L57.7246 34.3457L57.3828 34.0176V29.082C57.3828 26.375 57.3965 24.1602 57.4238 24.1602C57.4375 24.1602 59.8164 26.5254 62.7148 29.4238Z" fill="white"/>
<path d="M35.084 33.7441C34.4414 34.1133 34.1406 34.6465 34.1406 35.3984C34.1406 36.082 34.4961 36.7383 35.0566 37.1074C35.3984 37.3398 35.918 37.3535 41.4141 37.3945C47.1016 37.4355 47.4434 37.4219 48.0039 37.1621C48.7422 36.834 49.0703 36.3691 49.1387 35.5352C49.207 34.7695 48.8789 34.1543 48.1953 33.7305C47.7578 33.4707 47.498 33.457 41.6602 33.457C35.7402 33.457 35.5625 33.4707 35.084 33.7441Z" fill="white"/>
<path d="M35.002 45.0781C33.8125 45.7891 33.8672 47.7852 35.084 48.4277C35.4531 48.6055 37.1758 48.6328 50 48.6328C66.0098 48.6328 65.0391 48.6875 65.5859 47.7715C65.9414 47.1973 65.9414 46.2402 65.5859 45.666C65.0391 44.75 66.0234 44.8047 49.9727 44.8047C35.7949 44.8047 35.4258 44.8184 35.002 45.0781Z" fill="white"/>
<path d="M56.7676 55.0586C54.293 55.4414 52.1738 56.5352 50.3418 58.3945C48.4551 60.3086 47.4707 62.3047 47.1289 64.957C46.8281 67.1309 47.1699 69.0996 48.2227 71.2598C49.3711 73.625 50.998 75.2793 53.3496 76.4414C54.9902 77.2617 55.8926 77.4805 57.8887 77.5762C59.9531 77.6719 61.5117 77.3574 63.3027 76.4824L64.4922 75.8945L67.0488 78.4648C68.457 79.873 69.8105 81.1309 70.043 81.2402C70.9316 81.6641 72.0938 81.3496 72.5723 80.5703C72.8594 80.0918 72.9141 79.1348 72.6816 78.6699C72.5996 78.5059 71.3691 77.1934 69.9473 75.7715L67.377 73.1738L67.8008 72.5586C68.4707 71.5879 69.1133 70.0703 69.4277 68.7715C69.6738 67.7598 69.7012 67.2949 69.6465 65.8594C69.6055 64.916 69.4688 63.7812 69.3457 63.3301C68.7852 61.2793 67.3223 59.0234 65.6406 57.6152C64.5059 56.6445 62.373 55.5781 60.9785 55.2773C59.707 54.9902 57.8203 54.9082 56.7676 55.0586ZM60.1719 59.1602C61.5938 59.5156 62.4688 60.0215 63.5488 61.0742C65.0254 62.5234 65.7363 64.2188 65.7363 66.3379C65.7363 68.416 65.0391 70.0703 63.5898 71.5195C62.168 72.9551 60.459 73.666 58.4219 73.666C52.8848 73.6934 49.3027 67.9512 51.7773 63.0156C53.3359 59.8984 56.8223 58.2988 60.1719 59.1602Z" fill="white"/>
<path d="M35.4531 56.1523C34.6602 56.3984 34.1406 57.1504 34.1406 58.0664C34.1406 58.791 34.4551 59.3379 35.0977 59.6934C35.5898 59.9668 35.7949 59.9805 40.3203 59.9805C44.5859 59.9805 45.0508 59.9531 45.4883 59.7344C46.1445 59.3926 46.6367 58.4219 46.5 57.7246C46.377 57.0547 45.7344 56.3301 45.1055 56.1523C44.4902 55.9883 36.0273 55.9883 35.4531 56.1523Z" fill="white"/>
<path d="M35.084 67.6504C34.4414 68.0195 34.1406 68.5527 34.1406 69.3047C34.1406 69.9883 34.4961 70.6445 35.0566 71.0137C35.3848 71.2324 35.8086 71.2598 38.4336 71.3008C40.9629 71.3418 41.5234 71.3145 42.0293 71.123C43.5605 70.5352 43.7246 68.498 42.3164 67.6367C41.9062 67.3906 41.6191 67.3633 38.7207 67.3633C35.7812 67.3633 35.5488 67.3906 35.084 67.6504Z" fill="white"/>
</svg>
