<svg width="100" height="100" viewBox="0 0 100 100" fill="none" xmlns="http://www.w3.org/2000/svg">
<path d="M100 50C100 77.6142 77.6142 100 50 100C22.3858 100 0 77.6142 0 50C0 22.3858 22.3858 0 50 0C77.6142 0 100 22.3858 100 50Z" fill="#454887"/>
<path d="M31.5918 17.792C29.2559 18.4902 27.3896 20.0772 26.3232 22.2607C25.6758 23.5938 25.498 24.5205 25.498 26.666V28.5195L24.6982 29.5859C23.708 30.9063 23.0352 32.29 22.6035 33.8643C22.2988 35.0068 22.2734 35.2734 22.2734 38.0029C22.2734 40.6182 22.2988 41.0371 22.5527 42.0654C23.0605 44.0713 24.2158 46.166 25.6631 47.6768C25.9932 48.0195 26.1201 48.2227 25.9932 48.2227C25.6885 48.2227 23.708 49.2764 22.9463 49.835C20.4961 51.6504 18.7061 54.2402 17.8555 57.1729L17.5635 58.1885L17.5254 69.6777C17.4746 82.4619 17.4365 81.6875 18.3252 82.2461C18.7314 82.5 19.0869 82.5 50 82.5C80.9131 82.5 81.2686 82.5 81.6748 82.2461C82.5635 81.6875 82.5254 82.4619 82.4746 69.6777L82.4365 58.1885L82.1445 57.1729C81.0527 53.3643 78.2217 50.0254 74.794 48.5273L73.8672 48.1338L74.1465 47.8926C75.4033 46.7754 76.9522 44.0586 77.4473 42.0654C77.7139 41.0117 77.7393 40.6436 77.7266 37.3682C77.7266 33.9404 77.7139 33.7754 77.3838 32.5693C76.2793 28.4688 73.3086 25.3965 69.2334 24.1523C68.1924 23.835 67.9004 23.7969 65.9961 23.7969C64.2188 23.7842 63.749 23.8223 62.8857 24.0635C60.8799 24.6094 59.1914 25.5615 57.7061 27.0088C56.1445 28.5068 55.0147 30.4238 54.418 32.5439C54.1514 33.4961 54.1387 33.8135 54.1387 37.4316C54.1387 41.8115 54.2148 42.3066 55.2051 44.3887C55.8145 45.6582 56.2588 46.3311 57.1982 47.334C57.5918 47.7529 57.8838 48.1211 57.8584 48.1465C57.833 48.1592 57.3633 48.3877 56.8301 48.6416C56.2842 48.8955 55.5859 49.2764 55.2813 49.4795L54.7227 49.8731L54.0117 49.4414C52.7803 48.7051 51.6631 48.4131 50 48.4131C48.3369 48.4131 47.2197 48.7051 45.9883 49.4414L45.2773 49.8731L44.7188 49.4795C44.4141 49.2764 43.7158 48.8955 43.1699 48.6416C42.6367 48.3877 42.167 48.1592 42.1416 48.1465C42.1162 48.1211 42.4082 47.7529 42.8018 47.334C43.7412 46.3311 44.1856 45.6582 44.7949 44.3887C45.7598 42.3828 45.8613 41.7354 45.8613 38.0664C45.8613 35.1084 45.8359 34.7402 45.582 33.8135C45.0996 32.0742 43.8047 29.6748 42.9033 28.875C42.6494 28.6465 42.6367 28.5068 42.6367 26.7676C42.6367 25.3457 42.5732 24.6729 42.3955 23.9492C41.5957 20.8516 39.1582 18.4014 36.1494 17.6904C34.9053 17.3984 32.7598 17.4492 31.5918 17.792ZM35.959 21.791C37.2412 22.3623 38.4854 24 38.6631 25.3711L38.7266 25.8535L37.9902 25.5996C35.54 24.7744 32.5693 24.7871 30.1318 25.625L29.3955 25.8789L29.459 25.3076C29.5479 24.5205 30.1064 23.4414 30.7793 22.7813C32.125 21.4229 34.2197 21.0293 35.959 21.791ZM67.7481 27.8467C68.1797 27.9482 68.8652 28.2022 69.2715 28.4053C72.0518 29.8018 73.6133 32.2139 73.8164 35.4131L73.9053 36.7207L73.0293 36.2383C71.8106 35.5654 70.6553 34.6895 69.6143 33.6231C68.5732 32.5566 68.2305 32.3535 67.4941 32.3535C66.7578 32.3535 66.3897 32.5693 65.5391 33.4961C63.8125 35.3496 60.9688 36.9873 58.5059 37.5459L57.9727 37.6602L58.0234 35.8066C58.0742 34.2197 58.1377 33.8008 58.417 33.0137C59.2676 30.5762 61.2607 28.6846 63.7109 27.9482C64.8535 27.6182 66.5547 27.5674 67.7481 27.8467ZM35.5654 29.04C35.832 29.1035 36.0859 29.1924 36.1367 29.2305C36.1748 29.2813 36.1494 29.6367 36.0605 30.043C35.4004 33.166 32.5312 35.5273 29.3701 35.5273C28.583 35.5273 27.3135 35.2734 26.7295 35.0068L26.3994 34.8545L26.7041 34.0674C27.6182 31.6172 29.6367 29.8145 32.2266 29.1289C33.0137 28.9131 34.8291 28.875 35.5654 29.04ZM41.1006 33.2422C41.875 34.7529 41.9385 35.1338 41.9385 38.1299C41.9385 40.4023 41.9004 40.8975 41.6973 41.4941C40.7324 44.3379 38.5869 46.3564 35.8066 47.0166C34.6641 47.2959 32.9121 47.2197 31.7188 46.8389C30.0938 46.3311 28.4434 45.0488 27.4404 43.5381C26.8438 42.6494 26.3105 41.0625 26.1963 39.8945L26.1074 38.9805L26.793 39.1836C27.8086 39.4629 30.9062 39.4629 31.96 39.1709C33.9658 38.625 35.248 37.9141 36.708 36.543C38.1172 35.2227 38.9805 33.8516 39.7676 31.6553C39.8564 31.4141 39.8945 31.4395 40.2373 31.8457C40.4404 32.0869 40.8213 32.709 41.1006 33.2422ZM68.1924 37.7363C69.5 38.8408 71.3154 39.9072 73.1436 40.6563C73.6895 40.8721 73.7022 40.9863 73.3467 41.9385C71.29 47.4482 64.4727 48.9717 60.334 44.8457C59.6484 44.1729 59.293 43.6904 58.8867 42.8525C58.582 42.2432 58.3662 41.7227 58.4043 41.6846C58.4424 41.6465 58.9248 41.5068 59.4707 41.3672C62.1113 40.7451 64.8281 39.3994 66.7578 37.7744C67.1387 37.4443 67.4815 37.1777 67.4941 37.1777C67.5195 37.1777 67.8369 37.4316 68.1924 37.7363ZM40.1611 51.6885C41.3926 52.1074 42.7129 52.8184 42.6748 53.0596C42.6621 53.1611 42.5352 53.6309 42.3828 54.126C42.0527 55.2559 42.0146 58.4043 42.3193 59.585C42.5859 60.626 43.1826 61.8193 43.8555 62.6318L44.4014 63.3174L43.792 63.6982C43.0811 64.1553 41.7227 65.5391 41.126 66.415C40.5801 67.2275 39.9326 68.6494 39.6533 69.6777C39.4629 70.3633 39.4121 71.1758 39.374 74.5908L39.3105 78.6914H21.2959L21.334 69.0176C21.3848 59.5469 21.3975 59.3057 21.6641 58.3408C22.6543 54.748 25.5996 52.0186 29.1543 51.3965C29.4844 51.333 31.8711 51.3076 34.4482 51.3203L39.1455 51.3457L40.1611 51.6885ZM71.8994 51.6377C75.0859 52.6787 77.4473 55.1416 78.3359 58.3408C78.6025 59.3057 78.6152 59.5469 78.666 69.0049L78.7041 78.6914H60.6895L60.626 74.5908C60.5879 71.1758 60.5371 70.3633 60.3467 69.6777C60.0674 68.6494 59.4199 67.2275 58.874 66.415C58.2773 65.5391 56.9189 64.1553 56.208 63.6982L55.5986 63.3174L56.1572 62.6318C56.8047 61.8193 57.3887 60.6514 57.668 59.5723C57.9854 58.3535 57.9473 55.2686 57.6172 54.126C57.4648 53.6309 57.3379 53.1484 57.3252 53.0469C57.2744 52.6787 59.5723 51.6504 61.0195 51.3965C61.3496 51.333 63.7363 51.3076 66.3135 51.3203C70.8203 51.3457 71.0488 51.3584 71.8994 51.6377ZM51.7139 52.7168C52.5645 53.1357 53.4658 54.1133 53.7324 54.9131C53.8721 55.3193 53.9356 55.9541 53.9356 56.9316C53.9356 58.6836 53.6943 59.458 52.8438 60.3975C51.2188 62.2002 48.7813 62.2002 47.1563 60.3975C46.3057 59.458 46.0645 58.6836 46.0645 56.9316C46.0645 55.2305 46.2549 54.5703 46.9658 53.7578C48.2354 52.3106 50.0635 51.917 51.7139 52.7168ZM51.6885 65.9326C54.0752 66.5547 55.9795 68.4844 56.5381 70.833C56.6777 71.4551 56.7285 72.4707 56.7285 75.1621V78.6914H43.2715V75.1621C43.2715 72.4707 43.3223 71.4551 43.4619 70.833C44.0205 68.5098 45.9121 66.5674 48.2607 65.9326C49.1367 65.7041 50.7871 65.6914 51.6885 65.9326Z" fill="white"/>
</svg>
