<svg width="19" height="19" viewBox="0 0 19 19" fill="none" xmlns="http://www.w3.org/2000/svg">
<mask id="path-1-outside-1_594_295" maskUnits="userSpaceOnUse" x="0" y="-3.14713e-05" width="19" height="19" fill="black">
<rect fill="white" y="-3.14713e-05" width="19" height="19"/>
<path fill-rule="evenodd" clip-rule="evenodd" d="M9.00137 9.708L16.2956 17.0019L17.0027 16.2947L9.70849 9.00091L17.0027 1.7071L16.2956 0.999969L9.00137 8.29382L1.70709 0.999969L1 1.7071L8.29424 9.00091L1 16.2947L1.70709 17.0019L9.00137 9.708Z"/>
</mask>
<path fill-rule="evenodd" clip-rule="evenodd" d="M9.00137 9.708L16.2956 17.0019L17.0027 16.2947L9.70849 9.00091L17.0027 1.7071L16.2956 0.999969L9.00137 8.29382L1.70709 0.999969L1 1.7071L8.29424 9.00091L1 16.2947L1.70709 17.0019L9.00137 9.708Z" fill="#456987"/>
<path d="M16.2956 17.0019L15.5886 17.709C15.7761 17.8965 16.0305 18.0019 16.2957 18.0019C16.5609 18.0018 16.8152 17.8965 17.0028 17.7089L16.2956 17.0019ZM9.00137 9.708L9.70845 9.00087C9.31793 8.61037 8.6848 8.61037 8.29428 9.00087L9.00137 9.708ZM17.0027 16.2947L17.7099 17.0018C18.1004 16.6113 18.1004 15.9781 17.7098 15.5876L17.0027 16.2947ZM9.70849 9.00091L9.00141 8.29378C8.81386 8.48132 8.70849 8.73568 8.70849 9.00091C8.70849 9.26614 8.81386 9.5205 9.00141 9.70804L9.70849 9.00091ZM17.0027 1.7071L17.7098 2.41422C18.1004 2.02371 18.1004 1.39055 17.7099 1.00001L17.0027 1.7071ZM16.2956 0.999969L17.0028 0.292883C16.8152 0.105341 16.5609 -2.3663e-05 16.2957 -3.14713e-05C16.0305 -3.92199e-05 15.7761 0.10531 15.5886 0.292841L16.2956 0.999969ZM9.00137 8.29382L8.29428 9.00095C8.6848 9.39145 9.31793 9.39145 9.70845 9.00095L9.00137 8.29382ZM1.70709 0.999969L2.41417 0.292841C2.22663 0.10531 1.97227 -3.92199e-05 1.70706 -3.14713e-05C1.44184 -2.37226e-05 1.18749 0.105341 0.999959 0.292882L1.70709 0.999969ZM1 1.7071L0.292873 1.00001C0.105342 1.18755 -7.7486e-06 1.44191 0 1.70713C7.7486e-06 1.97234 0.105372 2.22669 0.292914 2.41422L1 1.7071ZM8.29424 9.00091L9.00133 9.70804C9.18887 9.5205 9.29424 9.26614 9.29424 9.00091C9.29424 8.73568 9.18887 8.48132 9.00133 8.29378L8.29424 9.00091ZM1 16.2947L0.292914 15.5876C-0.0976218 15.9781 -0.0976403 16.6113 0.292872 17.0018L1 16.2947ZM1.70709 17.0019L0.999959 17.7089C1.18749 17.8965 1.44184 18.0018 1.70706 18.0019C1.97227 18.0019 2.22663 17.8965 2.41417 17.709L1.70709 17.0019ZM17.0027 16.2947L9.70845 9.00087L8.29428 10.4151L15.5886 17.709L17.0027 16.2947ZM16.2956 15.5876L15.5885 16.2948L17.0028 17.7089L17.7099 17.0018L16.2956 15.5876ZM9.00141 9.70804L16.2956 17.0019L17.7098 15.5876L10.4156 8.29378L9.00141 9.70804ZM16.2956 0.999969L9.00141 8.29378L10.4156 9.70804L17.7098 2.41422L16.2956 0.999969ZM15.5885 1.70705L16.2956 2.41418L17.7099 1.00001L17.0028 0.292883L15.5885 1.70705ZM9.70845 9.00095L17.0027 1.7071L15.5886 0.292841L8.29428 7.5867L9.70845 9.00095ZM1 1.7071L8.29428 9.00095L9.70845 7.5867L2.41417 0.292841L1 1.7071ZM1.70713 2.41418L2.41421 1.70705L0.999959 0.292882L0.292873 1.00001L1.70713 2.41418ZM9.00133 8.29378L1.70709 0.999969L0.292914 2.41422L7.58715 9.70804L9.00133 8.29378ZM1.70709 17.0019L9.00133 9.70804L7.58715 8.29378L0.292914 15.5876L1.70709 17.0019ZM2.41421 16.2948L1.70713 15.5876L0.292872 17.0018L0.999959 17.7089L2.41421 16.2948ZM8.29428 9.00087L1 16.2947L2.41417 17.709L9.70845 10.4151L8.29428 9.00087Z" fill="#456987" mask="url(#path-1-outside-1_594_295)"/>
</svg>
