<svg width="16" height="16" viewBox="0 0 16 16" fill="none" xmlns="http://www.w3.org/2000/svg">
<path d="M14.7501 6.3125H13.6251C13.6239 5.26858 13.2087 4.26775 12.4705 3.52958C11.7323 2.79142 10.7315 2.37619 9.68758 2.375V1.25C11.0298 1.25149 12.3166 1.78534 13.2657 2.73442C14.2147 3.6835 14.7486 4.9703 14.7501 6.3125ZM13.6251 15.3125H13.5295C2.47633 14.6769 0.906956 5.35063 0.687581 2.50438C0.653294 2.05817 0.797653 1.61662 1.0889 1.27685C1.38015 0.93707 1.79444 0.7269 2.24064 0.692563C2.28527 0.689188 2.33008 0.687501 2.37508 0.687501H5.33946C5.56477 0.687282 5.78496 0.754725 5.9715 0.881092C6.15804 1.00746 6.30234 1.18693 6.38571 1.39625L7.24071 3.5C7.32303 3.7045 7.34346 3.92867 7.29946 4.14468C7.25546 4.36068 7.14896 4.559 6.99321 4.715L5.79508 5.92438C5.98147 6.98825 6.49055 7.96905 7.25327 8.73379C8.01599 9.49852 8.99545 10.0102 10.0588 10.1994L11.2795 8.99C11.4378 8.83596 11.638 8.73195 11.8551 8.69094C12.0721 8.64993 12.2965 8.67373 12.5001 8.75938L14.6207 9.60875C14.8269 9.69475 15.0028 9.84017 15.126 10.0265C15.2492 10.2128 15.3142 10.4316 15.3126 10.655V13.625C15.3126 14.0726 15.1348 14.5018 14.8183 14.8182C14.5019 15.1347 14.0726 15.3125 13.6251 15.3125ZM2.37508 1.8125C2.30121 1.81228 2.22802 1.82661 2.15969 1.85467C2.09136 1.88274 2.02923 1.92398 1.97684 1.97606C1.92445 2.02814 1.88283 2.09002 1.85436 2.15818C1.82588 2.22634 1.81111 2.29944 1.81089 2.37331C1.81089 2.38906 1.81146 2.40463 1.81258 2.42C2.07133 5.75 3.73071 13.625 13.5913 14.1875C13.7402 14.1964 13.8865 14.1459 13.9981 14.0469C14.1097 13.948 14.1775 13.8088 14.1865 13.6599L14.1876 13.625V10.655L12.067 9.80562L10.4526 11.4087L10.1826 11.375C5.28883 10.7619 4.62508 5.86813 4.62508 5.8175L4.59133 5.5475L6.18883 3.93313L5.34508 1.8125H2.37508Z" fill="#456987"/>
</svg>
