<svg width="24" height="25" viewBox="0 0 24 25" fill="none" xmlns="http://www.w3.org/2000/svg">
<path d="M10.8776 1.01027C6.8014 1.40475 3.15721 3.8749 1.31163 7.50031C0.658871 8.78235 0.273789 10.0174 0.0624639 11.5061C-0.0314585 12.1636 -0.0173701 13.8729 0.0906406 14.6055C0.273789 15.9111 0.658871 17.1461 1.25058 18.3343C2.41992 20.6917 4.28897 22.5608 6.65112 23.7348C10.4785 25.6414 15.0055 25.3784 18.5746 23.0445C19.9693 22.1334 21.2936 20.7809 22.1953 19.3439C22.5428 18.7992 23.0594 17.7378 23.2942 17.0992C23.5337 16.4511 23.8107 15.3334 23.9094 14.6055C24.0174 13.8682 24.0315 12.1589 23.9375 11.5061C23.6605 9.55721 23.0406 7.89478 22.0121 6.34506C21.5801 5.68761 21.1433 5.15225 20.5329 4.53706C18.6591 2.64452 16.3298 1.47049 13.6671 1.07602C13.0942 0.991489 11.4787 0.95392 10.8776 1.01027ZM19.2132 7.26081C19.3682 7.35473 19.5138 7.59893 19.5138 7.76329C19.5138 7.88539 17.1751 18.2309 17.1094 18.4C16.9967 18.6912 16.5646 18.9025 16.2547 18.8133C16.1655 18.7898 15.2779 18.2215 14.287 17.5453C13.2914 16.8691 12.4649 16.3196 12.4461 16.3196C12.432 16.3196 12.0329 16.6859 11.5633 17.132C10.4785 18.1605 10.4925 18.1511 10.2108 18.1511C10.0135 18.1511 9.95249 18.1276 9.81631 17.9961C9.67542 17.8599 9.59559 17.658 9.01327 15.9439C8.66106 14.8967 8.34642 14.0185 8.31824 13.9856C8.29006 13.9575 7.47294 13.718 6.50554 13.455C4.91825 13.0276 4.73041 12.9666 4.6177 12.8398C4.53317 12.7553 4.48621 12.652 4.48621 12.5627C4.48621 12.2293 4.36881 12.281 9.44061 10.4542C12.0235 9.52903 15.1323 8.40666 16.3439 7.96992C17.5602 7.53318 18.5934 7.16219 18.645 7.1481C18.7906 7.11053 19.0536 7.16219 19.2132 7.26081Z" fill="#456987"/>
<path d="M12.8267 11.4119C10.7323 12.6141 9.0088 13.6238 8.98532 13.652C8.96654 13.6849 8.94775 13.7694 8.94775 13.8351C8.94775 13.9948 9.95742 16.944 10.0185 16.9674C10.0795 16.9862 10.0936 16.9017 10.2157 15.8263C10.2721 15.3614 10.3237 14.934 10.3378 14.8777C10.3519 14.8072 11.4461 13.8821 13.5875 12.1351C15.3627 10.684 16.8278 9.47243 16.8466 9.44425C16.9124 9.35033 16.8607 9.25171 16.7433 9.24232C16.6635 9.23293 15.4378 9.91387 12.8267 11.4119Z" fill="#456987"/>
</svg>
