<svg width="24" height="25" viewBox="0 0 24 25" fill="none" xmlns="http://www.w3.org/2000/svg">
<path d="M10.8776 1.01027C6.8014 1.40475 3.15721 3.8749 1.31163 7.50031C0.658871 8.78235 0.273789 10.0174 0.0624639 11.5061C-0.0314585 12.1636 -0.0173701 13.8729 0.0906406 14.6055C0.273789 15.9111 0.658871 17.1461 1.25058 18.3343C2.41992 20.6917 4.28897 22.5608 6.65112 23.7348C10.4785 25.6414 15.0055 25.3784 18.5746 23.0445C19.9693 22.1334 21.2936 20.7809 22.1953 19.3439C22.5428 18.7992 23.0594 17.7378 23.2942 17.0992C23.5337 16.4511 23.8107 15.3334 23.9094 14.6055C24.0174 13.8682 24.0315 12.1589 23.9375 11.5061C23.6605 9.55721 23.0406 7.89478 22.0121 6.34506C21.5801 5.68761 21.1433 5.15225 20.5329 4.53706C18.6591 2.64452 16.3298 1.47049 13.6671 1.07602C13.0942 0.991489 11.4787 0.95392 10.8776 1.01027ZM12.9392 5.53733C13.8738 5.66413 14.5782 5.88484 15.4329 6.32628C19.0113 8.16246 20.4718 12.5956 18.6826 16.2022C17.95 17.6768 16.837 18.8086 15.3765 19.5552C13.4135 20.5555 11.103 20.6354 9.05553 19.7666L8.67045 19.6022L6.77792 20.0483C5.73538 20.2972 4.8572 20.4992 4.81963 20.4992C4.70693 20.4992 4.58013 20.3536 4.58013 20.2221C4.58013 20.1563 4.75389 19.2547 4.96521 18.2262C5.3456 16.376 5.3456 16.3478 5.27516 16.16C5.23289 16.0519 5.12018 15.7655 5.02626 15.5213C4.43455 14.0044 4.40168 12.2011 4.93234 10.5669C5.11079 10.0268 5.57101 9.11577 5.90913 8.63207C6.27073 8.1155 7.1583 7.22793 7.66548 6.86633C9.19172 5.78623 11.1265 5.29783 12.9392 5.53733Z" fill="#456987"/>
<path d="M11.6479 7.10112C10.7697 7.17156 10.0747 7.3688 9.32329 7.75388C6.78738 9.0547 5.57578 12.0039 6.45865 14.737C6.53379 14.9718 6.70285 15.371 6.82965 15.6246L7.05506 16.0754L6.82495 17.1931C6.69816 17.8083 6.60423 18.3342 6.60893 18.3671C6.61832 18.4 6.98462 18.3342 7.75009 18.1511L8.87716 17.8834L9.32329 18.1041C11.3004 19.0856 13.5028 18.9494 15.3061 17.7284C17.4241 16.3055 18.3492 13.5348 17.5321 11.0834C16.9498 9.33647 15.5409 7.93703 13.8081 7.38289C13.3056 7.22322 13.0473 7.17156 12.5166 7.11521C12.0752 7.06825 12.0142 7.06825 11.6479 7.10112ZM9.76942 9.38813C9.94787 9.46327 9.99014 9.53841 10.4081 10.4823C10.5584 10.8345 10.6852 11.1867 10.6852 11.276C10.6852 11.3887 10.6194 11.5155 10.4269 11.7691C10.1122 12.1823 10.0934 12.3326 10.3142 12.6848C10.4926 12.9713 11.3426 13.8119 11.8122 14.1688C12.5448 14.7276 12.8689 14.8591 13.1412 14.7182C13.1976 14.6854 13.376 14.5398 13.5357 14.3895C13.7705 14.1641 13.8503 14.1124 13.9818 14.1124C14.0664 14.1124 14.4984 14.2204 14.9351 14.3472C15.6161 14.5445 15.7523 14.5961 15.865 14.7229C15.9542 14.8262 15.9918 14.9155 15.9918 15.047C15.9918 15.432 15.3014 16.2163 14.7849 16.4182C14.4233 16.5591 13.5968 16.5732 13.1037 16.4417C11.9155 16.1271 10.4832 15.1221 9.43599 13.8635C8.60478 12.8726 8.27136 12.1025 8.26666 11.2008C8.26666 10.7359 8.27605 10.689 8.42163 10.3884C8.52495 10.1818 8.69401 9.95636 8.90533 9.74034C9.32798 9.31299 9.45947 9.26133 9.76942 9.38813Z" fill="#456987"/>
</svg>
