<svg width="60" height="60" viewBox="0 0 60 60" fill="none" xmlns="http://www.w3.org/2000/svg">
<path d="M27.1289 0.128704C13.8047 1.48808 3.04688 11.2732 0.527347 24.3045C0.0937533 26.5662 -0.0351529 28.2537 0.0351595 30.9256C0.152347 35.4607 1.11328 39.3162 3.11719 43.3475C5.48438 48.117 8.95313 52.0545 13.3359 54.9607C17.0742 57.4451 20.8711 58.9334 25.5469 59.7186C27.0703 59.9764 31.1133 60.0701 32.8828 59.8943C44.8008 58.6873 54.7383 50.7186 58.4766 39.3748C59.543 36.1521 59.9297 33.6443 59.9414 29.9998C59.9414 26.4842 59.5664 23.9998 58.582 20.9178C56.2383 13.5818 51.1523 7.40605 44.3555 3.66777C41.3203 1.99199 37.793 0.82011 34.1602 0.281048C32.7305 0.0701103 28.5703 -0.0236397 27.1289 0.128704ZM33.1406 13.9568C38.8359 15.0467 43.6406 19.242 45.4687 24.7146C45.9844 26.2381 46.1719 27.2576 46.3359 29.4256C46.5117 31.5584 46.582 31.8162 47.5781 33.3982C47.8359 33.8084 48.1875 34.5818 48.3516 35.0975C49.7578 39.492 47.168 44.1209 42.6445 45.2928C41.707 45.5389 39.9023 45.5389 38.9062 45.3045C37.6406 44.9998 36.6562 45.0584 35.1445 45.5271C33.1406 46.16 31.9687 46.3357 29.8828 46.324C28.5117 46.324 27.7734 46.2537 26.8711 46.0662C21.7734 44.9998 17.6719 41.8709 15.3633 37.2771C14.3672 35.2967 13.793 33.035 13.6523 30.5271C13.5586 28.7342 13.3945 28.1951 12.5977 26.8943C11.7656 25.5467 11.3672 24.3045 11.2852 22.8514C11.2031 21.3748 11.4375 20.2967 12.1406 18.867C13.0547 17.0271 14.6602 15.6209 16.6641 14.9178C17.7891 14.5193 19.9102 14.4139 21.1289 14.6951C22.3711 14.9881 23.3438 14.9412 24.6797 14.5311C27.8086 13.5584 30.2227 13.4061 33.1406 13.9568Z" fill="white"/>
<path d="M28.7696 18.2929C27.4805 18.4218 25.8633 18.8671 24.9141 19.371C23.918 19.8866 22.711 21.1171 22.2657 22.0429C21.0235 24.6679 21.5157 27.6444 23.4844 29.3553C24.6563 30.3866 25.8633 30.9022 29.168 31.7577C31.4297 32.3436 32.8946 32.871 33.3399 33.2577C34.5703 34.2889 33.9141 35.6835 32.0157 36.0819C31.0899 36.2694 29.2149 36.246 28.4649 36.0233C27.3985 35.7069 26.3086 35.0624 25.2774 34.1132C24.0118 32.9647 23.4141 32.7538 22.336 33.0702C20.9414 33.4921 20.2383 35.2499 20.9297 36.5975C21.4571 37.6053 24.0352 39.5975 25.7227 40.3124C27.3985 41.0038 27.8438 41.0741 30.4102 41.0624C33.0352 41.0507 33.8789 40.8983 35.4492 40.1483C37.7696 39.0585 39.1055 36.6092 38.8594 33.8905C38.6016 31.1483 37.125 29.2968 34.2188 28.1366C33.3985 27.8085 32.8828 27.6679 29.3907 26.7304C27.6797 26.285 26.9883 25.9686 26.7071 25.4999C26.0743 24.4569 26.918 23.5311 28.8282 23.203C30.8555 22.8397 33.0469 23.6132 34.7696 25.2889C35.6485 26.1561 36.0821 26.3671 36.9258 26.3671C38.8242 26.3671 39.9492 24.3397 38.9649 22.6757C38.6133 22.0663 37.1719 20.6835 36.2227 20.0507C34.7696 19.0663 33.2813 18.5038 31.5235 18.2929C30.4336 18.1522 30.293 18.1522 28.7696 18.2929Z" fill="white"/>
</svg>
