<svg width="100" height="100" viewBox="0 0 100 100" fill="none" xmlns="http://www.w3.org/2000/svg">
<path d="M100 50C100 77.6142 77.6142 100 50 100C22.3858 100 0 77.6142 0 50C0 22.3858 22.3858 0 50 0C77.6142 0 100 22.3858 100 50Z" fill="#454887"/>
<path d="M25.1299 17.7412C23.6064 18.3125 22.502 19.3154 21.7783 20.7881C21.3848 21.6006 21.3721 21.6895 21.3721 23.2129C21.3721 24.7363 21.3848 24.8252 21.7783 25.625C22.502 27.1104 23.5557 28.0752 25.041 28.6211C25.8662 28.9131 25.8662 28.9131 24.6094 29.1797C24.2285 29.2686 23.3652 29.5859 22.7051 29.9033C21.6641 30.4111 21.3467 30.6397 20.2803 31.7061C19.2266 32.7598 18.9853 33.0898 18.4775 34.1309C17.5127 36.1494 17.5 36.251 17.5 42.4844V47.9688H36.543V42.4717C36.543 36.2383 36.5049 36.0098 35.502 34.0039C35.0703 33.1279 34.7402 32.6963 33.75 31.7188C32.1885 30.1572 30.957 29.4971 28.6084 28.9893C28.2402 28.9131 28.2402 28.9004 28.9131 28.6719C30.4111 28.1387 31.541 27.1104 32.2646 25.6377C32.6582 24.8252 32.6709 24.7363 32.6709 23.2129C32.6709 21.6641 32.6582 21.6006 32.2393 20.7373C31.668 19.5693 30.665 18.5664 29.4971 18.0078C28.6719 17.6016 28.4941 17.5635 27.2119 17.5381C26.0693 17.5 25.6885 17.5381 25.1299 17.7412ZM27.9609 21.6768C28.5068 22.0449 28.7988 22.5654 28.7988 23.2129C28.7988 24.2285 28.0371 24.9902 27.0215 24.9902C26.0059 24.9902 25.2441 24.2285 25.2441 23.2129C25.2441 22.1973 26.0059 21.4355 27.0215 21.4355C27.3643 21.4355 27.7324 21.5371 27.9609 21.6768ZM29.3447 33.3311C30.4746 33.8643 31.5918 34.9814 32.0996 36.0732C32.6074 37.1396 32.7217 38.1807 32.7344 41.4561V44.1602H21.3086V41.4561C21.3213 38.1807 21.4355 37.1396 21.9434 36.0732C22.375 35.1338 23.5049 33.9277 24.3555 33.4961C25.3838 32.9629 25.8789 32.8613 27.2119 32.8994C28.3418 32.9248 28.583 32.9756 29.3447 33.3311Z" fill="white"/>
<path d="M44.2998 17.7539C42.7891 18.2998 41.6719 19.3154 40.9482 20.7881L40.542 21.626V40.1611L40.9482 40.999C41.6846 42.4971 42.8018 43.5 44.3506 44.0332C44.9219 44.2363 45.417 44.2871 46.5977 44.2871H48.0957V49.0479L41.4307 55.7129L31.5283 55.7383L21.626 55.7764L20.7373 56.208C19.5693 56.7793 18.5664 57.7822 17.9951 58.9502L17.5635 59.8389V78.374L17.9697 79.2119C18.7061 80.7227 19.8486 81.7256 21.3848 82.2461C22.1211 82.5 22.4512 82.5 38.7646 82.4746L55.3955 82.4365L56.2842 82.0049C57.4521 81.4336 58.4551 80.4307 59.0264 79.2627L59.458 78.374V59.8389L59.0264 58.9502C58.4551 57.7822 57.4521 56.7793 56.2842 56.208C55.4336 55.8018 55.332 55.7764 53.6562 55.7383L51.9043 55.6875V50.9521L55.2432 47.626L58.5693 44.2871L68.4717 44.2617L78.374 44.2236L79.2627 43.792C80.4307 43.2207 81.4336 42.2178 82.0049 41.0498L82.4365 40.1611V21.626L82.0049 20.7373C81.4336 19.5693 80.4307 18.5664 79.2627 17.9951L78.374 17.5635L61.6797 17.5381C45.4551 17.5127 44.96 17.5127 44.2998 17.7539ZM77.6758 21.6514C77.917 21.8037 78.2344 22.1211 78.374 22.3496C78.6152 22.7559 78.6279 22.9971 78.6279 30.8936C78.6279 38.79 78.6152 39.0312 78.374 39.4375C78.2344 39.666 77.917 39.9834 77.6758 40.1357L77.2314 40.415L66.9482 40.4531L56.665 40.4785L54.291 42.8652L51.9043 45.2393V40.5039L48.832 40.4531C45.9248 40.415 45.7217 40.4023 45.3027 40.1357C45.0615 39.9834 44.7441 39.666 44.6045 39.4375C44.3633 39.0312 44.3506 38.79 44.3506 30.8936V22.7686L44.6299 22.3242C44.9346 21.8291 45.3027 21.5625 45.874 21.4228C46.0898 21.3721 53.2246 21.3467 61.7432 21.3467L77.2314 21.3721L77.6758 21.6514ZM51.1807 59.5469C54.0752 59.585 54.2783 59.5977 54.6973 59.8643C54.9385 60.0166 55.2559 60.334 55.3955 60.5625C55.6367 60.9688 55.6494 61.21 55.6494 69.1064V77.2314L55.3701 77.6758C55.2178 77.917 54.9004 78.2344 54.6719 78.374C54.2529 78.6279 54.0244 78.6279 38.5107 78.6279C22.9971 78.6279 22.7686 78.6279 22.3496 78.374C22.1211 78.2344 21.8037 77.917 21.6514 77.6758L21.3721 77.2314V69.1064C21.3721 61.21 21.3848 60.9688 21.626 60.5625C21.7656 60.334 22.083 60.0166 22.3242 59.8643L22.7686 59.585L43.3477 59.5088L48.0322 54.8242L48.0703 57.1602L48.0957 59.4961L51.1807 59.5469Z" fill="white"/>
<path d="M63.3301 29.0527H74.7559V25.2441H63.3301V29.0527Z" fill="white"/>
<path d="M54.9893 28.8242L51.9043 31.9092L49.4922 29.4971L46.6357 32.3535L49.2764 34.9814L51.9043 37.6221L60.9814 28.5449L59.585 27.1484C58.8232 26.3867 58.1631 25.752 58.125 25.752C58.0869 25.752 56.6777 27.1357 54.9893 28.8242Z" fill="white"/>
<path d="M63.3301 36.6699H74.7559V32.8613H63.3301V36.6699Z" fill="white"/>
<path d="M25.2441 67.1387H36.6699V63.3301H25.2441V67.1387Z" fill="white"/>
<path d="M42.3193 65.2344L40.9229 66.6309L43.335 69.043L40.9229 71.4551L42.3574 72.877L43.7793 74.3115L46.1914 71.8994L48.6035 74.3115L50.0254 72.877L51.46 71.4551L49.0479 69.043L51.46 66.6309L50.0254 65.209L48.6035 63.7744L46.1914 66.1865L45.0107 65.0059C44.3633 64.3711 43.8047 63.8379 43.7793 63.8379C43.7412 63.8379 43.0811 64.46 42.3193 65.2344Z" fill="white"/>
<path d="M25.2441 74.7559H36.6699V70.9473H25.2441V74.7559Z" fill="white"/>
<path d="M71.0869 52.2725C69.5635 52.8438 68.459 53.8467 67.7354 55.3193C67.3418 56.1318 67.3291 56.2207 67.3291 57.7441C67.3291 59.2676 67.3418 59.3564 67.7354 60.1562C68.459 61.6416 69.5127 62.6064 70.998 63.1523C71.8232 63.4443 71.8232 63.4443 70.5664 63.7109C70.1855 63.7998 69.3223 64.1172 68.6621 64.4346C67.6211 64.9424 67.3037 65.1709 66.2373 66.2373C65.1836 67.291 64.9424 67.6211 64.4346 68.6621C63.4697 70.6807 63.457 70.7822 63.457 77.0156V82.5H82.5V77.0029C82.5 70.7695 82.4619 70.541 81.459 68.5352C81.0273 67.6592 80.6973 67.2275 79.707 66.25C78.1455 64.6885 76.9141 64.0283 74.5654 63.5205C74.1973 63.4443 74.1973 63.4316 74.8701 63.2031C76.3682 62.6699 77.498 61.6416 78.2217 60.1689C78.6152 59.3564 78.6279 59.2676 78.6279 57.7441C78.6279 56.1953 78.6152 56.1318 78.1963 55.2686C77.625 54.1006 76.6221 53.0977 75.4541 52.5391C74.6289 52.1328 74.4512 52.0947 73.1689 52.0693C72.0264 52.0312 71.6455 52.0693 71.0869 52.2725ZM73.918 56.208C74.4639 56.5762 74.7559 57.0967 74.7559 57.7441C74.7559 58.7598 73.9941 59.5215 72.9785 59.5215C71.9629 59.5215 71.2012 58.7598 71.2012 57.7441C71.2012 56.7285 71.9629 55.9668 72.9785 55.9668C73.3213 55.9668 73.6895 56.0684 73.918 56.208ZM75.3018 67.8623C76.4316 68.3955 77.5488 69.5127 78.0566 70.6045C78.5645 71.6709 78.6787 72.7119 78.6914 75.9873V78.6914H67.2656V75.9873C67.2783 72.7119 67.3926 71.6709 67.9004 70.6045C68.332 69.665 69.4619 68.459 70.3125 68.0273C71.3408 67.4941 71.8359 67.3926 73.1689 67.4307C74.2988 67.4561 74.54 67.5068 75.3018 67.8623Z" fill="white"/>
</svg>
