<svg width="100" height="100" viewBox="0 0 100 100" fill="none" xmlns="http://www.w3.org/2000/svg">
<path d="M100 50C100 77.6142 77.6142 100 50 100C22.3858 100 0 77.6142 0 50C0 22.3858 22.3858 0 50 0C77.6142 0 100 22.3858 100 50Z" fill="#454887"/>
<path d="M21.8799 17.6777C20.2041 18.2109 18.9092 19.3281 18.1602 20.8896L17.6904 21.8799L17.6523 25.0537C17.6016 28.5957 17.6396 28.8115 18.4521 29.3066C18.833 29.5479 19.0996 29.5605 22.3115 29.5605H25.752V53.5293C25.752 75.0352 25.7773 77.5742 25.9551 78.1963C26.4883 80.0371 28.0117 81.5986 29.8779 82.2461C30.6016 82.5 30.9316 82.5 50.9521 82.5C73.3213 82.5 71.8613 82.5508 73.2959 81.7383C74.0576 81.2939 75.1113 80.2402 75.5557 79.4531C76.1904 78.3232 76.2793 77.7393 76.2793 74.5781C76.2793 71.9248 76.2539 71.6074 76.0381 71.2773C75.5176 70.4902 75.3145 70.4395 72.6357 70.4395H70.1855V60.0293H75.6826C80.8369 60.0293 81.1924 60.0166 81.5352 59.7881C82.1191 59.3945 82.3731 58.9121 82.3731 58.125C82.3731 57.3379 82.1191 56.8555 81.5352 56.4619C81.1924 56.2334 80.8369 56.2207 75.6826 56.2207H70.1855V39.3486C70.1855 23.1748 70.1729 22.4385 69.9443 21.7021C69.6143 20.6357 69.1953 19.9629 68.3193 19.1377C67.4941 18.3506 66.9229 18.0205 65.8818 17.7031C65.2598 17.5254 63.1016 17.5 43.792 17.5127C26.8564 17.5127 22.2861 17.5508 21.8799 17.6777ZM64.9805 21.5498C65.4502 21.8037 65.8691 22.21 66.0977 22.6416C66.3008 22.9844 66.3135 24.457 66.3516 39.6152L66.377 56.2207H60.7656L60.8545 55.6875C60.9053 55.3828 61.0703 54.6592 61.2227 54.0625L61.4893 52.9834L62.251 52.9199C63.4951 52.8184 64.0918 52.1963 64.0918 51.0156C64.0918 50.2285 63.8379 49.7461 63.2539 49.3525C62.8984 49.124 62.5176 49.1113 55.0781 49.1113C47.6387 49.1113 47.2578 49.124 46.9023 49.3525C46.3184 49.7461 46.0645 50.2285 46.0645 51.0156C46.0645 52.1963 46.6611 52.8184 47.9053 52.9199L48.667 52.9834L48.959 54.126C49.6191 56.7412 49.6191 59.5342 48.959 62.124L48.667 63.2666L47.9053 63.3301C46.6611 63.4316 46.0645 64.0537 46.0645 65.2344C46.0645 66.0215 46.3184 66.5039 46.9023 66.8975C47.2578 67.126 47.6387 67.1387 55.0781 67.1387C62.5176 67.1387 62.8984 67.126 63.2539 66.8975C63.8379 66.5039 64.0918 66.0215 64.0918 65.2344C64.0918 64.0537 63.4951 63.4316 62.251 63.3301L61.4893 63.2666L61.2227 62.1875C61.0703 61.5908 60.9053 60.8672 60.8545 60.5625L60.7656 60.0293H66.377V70.4395H50.7363C35.7178 70.4395 35.0703 70.4521 34.7275 70.6807C33.9785 71.1758 33.9404 71.2773 33.877 74.248C33.8008 77.0791 33.7627 77.2822 33.1914 77.9043C32.3789 78.8057 31.0586 78.8057 30.2461 77.9043C29.5859 77.1807 29.624 78.9707 29.5605 49.4287C29.5225 34.2705 29.4463 21.7529 29.3828 21.5879L29.2812 21.3086L46.9658 21.334C61.6924 21.3721 64.7139 21.3975 64.9805 21.5498ZM24.6094 21.7148C25.4854 22.3242 25.7393 22.9717 25.752 24.7617V25.752H21.4355V24.6982C21.4482 23.4795 21.6006 22.6797 21.9434 22.1973C22.4893 21.4229 23.835 21.1943 24.6094 21.7148ZM57.3252 53.2119C56.6016 56.0684 56.6016 60.0928 57.3252 63.0381L57.3887 63.3301H55.0908C53.8213 63.3301 52.793 63.292 52.793 63.2539C52.793 63.2158 52.9199 62.5937 53.0723 61.8955C53.3008 60.8164 53.3516 60.1943 53.3516 58.125C53.3516 56.0557 53.3008 55.4336 53.0723 54.3545C52.9199 53.6562 52.793 53.0342 52.793 52.9961C52.793 52.958 53.8213 52.9199 55.0908 52.9199H57.3887L57.3252 53.2119ZM72.4453 75.6191C72.3691 77.0537 72.2295 77.5234 71.6836 78.0059C70.9727 78.666 71.9375 78.6279 54.0371 78.666L37.3301 78.6914L37.5078 78.1074C37.6221 77.7266 37.6855 76.9141 37.6855 75.873V74.248H72.5088L72.4453 75.6191Z" fill="white"/>
<path d="M38.7773 25.9932C38.1934 26.3867 37.9395 26.8691 37.9395 27.6562C37.9395 28.4434 38.1934 28.9258 38.7773 29.3193C39.1328 29.5479 39.5391 29.5605 47.9688 29.5605C56.3984 29.5605 56.8047 29.5479 57.1602 29.3193C57.7441 28.9258 57.998 28.4434 57.998 27.6562C57.998 26.8691 57.7441 26.3867 57.1602 25.9932C56.8047 25.7646 56.3984 25.752 47.9688 25.752C39.5391 25.752 39.1328 25.7646 38.7773 25.9932Z" fill="white"/>
<path d="M34.7148 34.1182C34.1309 34.5117 33.877 34.9941 33.877 35.7812C33.877 36.5684 34.1309 37.0508 34.7148 37.4443C35.0703 37.6729 35.5527 37.6855 47.9688 37.6855C60.3848 37.6855 60.8672 37.6729 61.2227 37.4443C61.8066 37.0508 62.0605 36.5684 62.0605 35.7812C62.0605 34.9941 61.8066 34.5117 61.2227 34.1182C60.8672 33.8896 60.3848 33.877 47.9688 33.877C35.5527 33.877 35.0703 33.8896 34.7148 34.1182Z" fill="white"/>
<path d="M34.7148 42.2432C34.1309 42.6367 33.877 43.1191 33.877 43.9062C33.877 44.6934 34.1309 45.1758 34.7148 45.5693C35.0703 45.7979 35.5527 45.8105 47.9688 45.8105C60.3848 45.8105 60.8672 45.7979 61.2227 45.5693C61.8066 45.1758 62.0605 44.6934 62.0605 43.9062C62.0605 43.1191 61.8066 42.6367 61.2227 42.2432C60.8672 42.0146 60.3848 42.002 47.9688 42.002C35.5527 42.002 35.0703 42.0146 34.7148 42.2432Z" fill="white"/>
<path d="M37.1143 52.3359C35.4004 52.8945 34.1436 53.9863 33.3945 55.5479C32.9248 56.5254 32.9248 56.5508 32.9248 58.125C32.9248 59.6992 32.9248 59.7246 33.3945 60.7021C34.0293 62.0098 34.9434 62.9238 36.251 63.5586C37.2285 64.0283 37.2539 64.0283 38.8281 64.0283C40.4023 64.0283 40.4277 64.0283 41.4053 63.5586C42.7129 62.9238 43.627 62.0098 44.2617 60.7021C44.7314 59.7246 44.7314 59.6992 44.7314 58.125C44.7314 56.5508 44.7314 56.5254 44.2617 55.5479C43.627 54.2402 42.7129 53.3262 41.4053 52.6914C40.4658 52.2471 40.3389 52.2217 39.0186 52.1963C38.1172 52.1709 37.4443 52.2217 37.1143 52.3359ZM39.7676 56.2842C40.4912 56.627 40.7959 57.1729 40.7959 58.125C40.7959 58.7471 40.7324 59.0264 40.5547 59.2803C40.0469 59.9277 39.7041 60.0928 38.8281 60.0928C37.9521 60.0928 37.6094 59.9277 37.1016 59.2803C36.7461 58.7979 36.7588 57.4395 37.1396 56.9062C37.6855 56.1445 38.8789 55.8652 39.7676 56.2842Z" fill="white"/>
</svg>
