<svg width="100" height="100" viewBox="0 0 100 100" fill="none" xmlns="http://www.w3.org/2000/svg">
<path d="M100 50C100 77.6142 77.6142 100 50 100C22.3858 100 0 77.6142 0 50C0 22.3858 22.3858 0 50 0C77.6142 0 100 22.3858 100 50Z" fill="#454887"/>
<path d="M47.0117 9.69922C41.3281 10.8271 36.6113 14.958 34.8389 20.3779C31.4844 30.6904 39.1455 41.252 49.9854 41.252C52.71 41.252 54.8633 40.7246 57.2949 39.4795C63.8867 36.1104 67.2705 28.4932 65.3955 21.3154C63.8135 15.3535 58.833 10.7393 52.7979 9.68457C51.2891 9.4209 48.374 9.4209 47.0117 9.69922ZM52.7246 14.1523C57.1631 15.2656 60.5615 18.9277 61.3525 23.4541C61.6309 25.0654 61.6309 25.6514 61.3525 27.2627C60.9131 29.7822 59.917 31.6572 58.0713 33.4883C55.6982 35.832 53.2373 36.8428 49.9121 36.8574C45.5469 36.8574 41.5039 34.3232 39.6143 30.3682C38.7207 28.5225 38.5156 27.5703 38.5156 25.3584C38.5156 23.2051 38.7207 22.2529 39.541 20.4512C41.0059 17.2871 43.9355 14.9287 47.4365 14.0938C48.7842 13.7715 51.333 13.8008 52.7246 14.1523Z" fill="white"/>
<path d="M49.3555 17.668C49.1211 17.7412 48.7695 17.9463 48.5791 18.1367C47.8467 18.8106 47.8027 19.0742 47.8027 22.1504C47.8027 24.8311 47.8174 25.0654 48.125 25.5928C48.5352 26.3252 49.4873 26.8232 50.2637 26.6914C50.8643 26.6035 51.377 26.2666 51.8164 25.666C52.1094 25.2852 52.124 25.0654 52.124 22.1357C52.124 19.2061 52.1094 18.9863 51.8164 18.6055C51.1865 17.7559 50.249 17.3897 49.3555 17.668Z" fill="white"/>
<path d="M48.8135 29.1377C47.0264 30.3242 47.8613 33.1074 50 33.1074C52.1387 33.1074 52.9736 30.3242 51.1865 29.1377C50.8496 28.9033 50.4688 28.8008 50 28.8008C49.5313 28.8008 49.1504 28.9033 48.8135 29.1377Z" fill="white"/>
<path d="M14.0674 38.2344C13.7598 38.3516 13.3643 38.5566 13.2031 38.7178C12.4707 39.3623 12.5 38.791 12.5 56.5889C12.5 72.541 12.5146 73.2881 12.7783 73.7715C13.3496 74.8408 13.4229 74.8555 17.4365 74.9434L21.0254 75.0166L21.3477 75.9102C21.8311 77.2432 22.4023 78.1367 23.3984 79.1182C24.9951 80.7002 27.0605 81.5352 29.3164 81.5352C31.3965 81.5352 33.1543 80.9053 34.7949 79.5723C35.8057 78.752 36.9629 77.0527 37.3438 75.8516L37.6221 74.9434H40.9326C43.5693 74.9434 44.375 74.8994 44.917 74.709C45.8545 74.3867 46.9531 73.376 47.3779 72.4238C47.7295 71.6475 47.7295 71.6035 47.7734 65.8613C47.8174 59.3867 47.7588 58.625 46.9824 57.0869C46.4111 55.9297 45.1514 54.6553 44.0527 54.0986C43.6426 53.8936 41.8701 53.293 40.1123 52.7656C37.7832 52.0771 36.8311 51.7256 36.5967 51.4766C36.4209 51.2861 34.2529 48.8691 31.7773 46.0859C29.3018 43.3027 26.9434 40.7246 26.5332 40.3438C25.6689 39.5381 24.1748 38.7178 22.959 38.3809C21.7285 38.0439 14.8877 37.9268 14.0674 38.2344ZM22.4609 42.8779C23.3398 43.2881 23.6475 43.5957 28.3057 48.7959C29.5947 50.2461 30.6641 51.4766 30.6641 51.5352C30.6641 51.6084 27.5732 51.6523 23.7793 51.6523H16.8945V42.3945L19.2822 42.4531C21.4502 42.4971 21.7285 42.541 22.4609 42.8779ZM34.6484 58.6543C34.6924 61.2324 34.6924 61.2617 35.1611 62.1992C35.4102 62.7266 35.9082 63.4443 36.2598 63.7959C37.6074 65.1436 38.8672 65.5684 41.6064 65.5684H43.4082V70.5488H40.4492L37.4756 70.5342L36.9189 69.3477C35.0879 65.4951 30.4004 63.6201 26.3867 65.1289C24.3945 65.876 22.5781 67.5459 21.7139 69.4502L21.2158 70.5342L19.0625 70.5488H16.8945V56.0469H34.5898L34.6484 58.6543ZM40.6689 57.5264C42.749 58.1709 43.4082 58.9033 43.4082 60.6172V61.1738H41.6357C39.8779 61.1738 39.8633 61.1738 39.4385 60.749C39.0137 60.3242 39.0137 60.2949 39.0137 58.6982C39.0137 57.8047 39.0576 57.0723 39.1016 57.0723C39.1602 57.0723 39.8633 57.2773 40.6689 57.5264ZM31.0449 69.377C32.3486 69.9482 33.4473 71.6182 33.4473 73.0244C33.4473 75.2803 31.5869 77.1406 29.3457 77.1406C27.1484 77.1406 25.4492 75.5732 25.2734 73.3906C25.0244 70.2998 28.1738 68.1025 31.0449 69.377Z" fill="white"/>
<path d="M76.1328 38.1758C74.8145 38.3076 73.042 38.8643 71.8262 39.5088C70.1123 40.4316 69.2188 41.2813 64.6631 46.3643L60.1074 51.4619L58.0859 51.5498C55.4785 51.667 54.8926 51.8721 53.7207 53.0293C52.2119 54.5381 52.2705 54.1279 52.2705 63.6641V71.7939L52.666 72.541C52.8857 72.9512 53.3691 73.5664 53.7354 73.8887C54.8047 74.8262 55.332 74.9434 58.6279 74.9434H61.499L61.748 75.8076C62.085 76.9648 63.3154 78.752 64.3262 79.5723C65.9668 80.9053 67.7246 81.5352 69.8047 81.5352C72.0605 81.5352 74.126 80.7002 75.7227 79.1182C76.7188 78.1367 77.29 77.2432 77.7734 75.9102L78.0957 75.0166L82.124 74.9434C86.6357 74.8555 86.6504 74.8555 87.2363 73.7715C87.4854 73.2734 87.5 72.5996 87.4707 56.3838L87.4268 39.5088L87.1191 39.0986C86.9434 38.8789 86.5918 38.5566 86.3135 38.3955C85.8447 38.1172 85.5371 38.1025 81.5674 38.0879C79.2383 38.0732 76.792 38.1172 76.1328 38.1758ZM83.1055 51.6523H74.5361C69.8193 51.6523 65.9668 51.6084 65.9668 51.5352C65.9961 51.2568 72.4268 44.3428 73.1299 43.8594C74.7998 42.7022 75.9277 42.4678 80.2197 42.4385L83.1055 42.4238V51.6523ZM60.3418 56.0469H61.8506L61.4844 57.0283C61.2793 57.585 60.9131 58.5371 60.6641 59.1523L60.2393 60.2949H56.5918V58.2441C56.5918 55.8564 56.6064 55.8418 57.9688 55.9736C58.4375 56.0176 59.5068 56.0469 60.3418 56.0469ZM83.1055 70.5488H80.5127L77.9053 70.5342L77.4072 69.4502C76.543 67.5459 74.7266 65.876 72.7344 65.1289C68.7207 63.6201 64.0332 65.5098 62.2021 69.3477L61.6455 70.5342L59.126 70.5488H56.5918V64.6895H59.3018C62.3047 64.6895 62.9492 64.5576 63.4766 63.8106C63.6377 63.5908 64.3115 61.9356 65 60.1338C65.6738 58.332 66.3037 56.6768 66.3916 56.4424L66.5527 56.0469H83.1055V70.5488ZM71.6357 69.4648C72.4561 69.8604 72.9688 70.3877 73.4814 71.3398C73.9355 72.1895 73.9355 74.0352 73.4814 74.8701C72.0752 77.5068 68.6621 77.9463 66.7285 75.749C65.4688 74.3135 65.3369 72.4678 66.377 70.8418C67.4756 69.1133 69.7021 68.5273 71.6357 69.4648Z" fill="white"/>
</svg>
