<svg width="100" height="100" viewBox="0 0 100 100" fill="none" xmlns="http://www.w3.org/2000/svg">
<path d="M100 50C100 77.6142 77.6142 100 50 100C22.3858 100 0 77.6142 0 50C0 22.3858 22.3858 0 50 0C77.6142 0 100 22.3858 100 50Z" fill="#454887"/>
<path d="M44.833 17.7539C44.5664 17.919 43.8809 18.8076 42.8525 20.3438L41.291 22.6924L38.9043 21.1055C36.5557 19.5566 36.5176 19.5313 35.8066 19.5313C35.0068 19.5313 34.4102 19.8106 34.0547 20.3564C33.9404 20.5342 33.5342 21.918 33.1533 23.4287C32.7725 24.9522 32.4551 26.209 32.4297 26.2217C32.417 26.2344 31.5029 25.6504 30.3984 24.9268C28.4434 23.6318 28.3799 23.5938 27.6816 23.5938C26.8818 23.5938 26.2852 23.8731 25.9297 24.4189C25.8154 24.5967 25.4092 25.9805 25.0283 27.4912C24.6475 29.0147 24.3301 30.2715 24.3047 30.2842C24.292 30.2969 23.3779 29.7129 22.2734 28.9893C20.3184 27.6943 20.2549 27.6563 19.5566 27.6563C18.7061 27.6563 18.1475 27.9482 17.7412 28.5703C17.5 28.9512 17.4873 29.1289 17.5508 30.4492C17.6777 33.3184 18.7441 40.542 19.7978 45.6582C24.0508 66.2373 31.4014 78.793 40.9736 81.7891C42.751 82.3477 44.1348 82.5254 46.1914 82.4746C47.8418 82.4238 48.1465 82.3857 49.1113 82.0303C50.5713 81.5098 79.1992 69.6904 79.4912 69.4873C79.9355 69.1699 81.0654 67.6338 81.5098 66.7197C82.2207 65.2852 82.5 64.0537 82.5 62.3271C82.5 59.2676 81.4971 56.8555 79.3643 54.8115C77.4726 52.9834 75.2891 52.0566 72.7754 52.0312L71.7725 52.0059L64.9932 54.6211C61.2607 56.0557 58.1885 57.2236 58.1758 57.1982C57.9727 56.9951 55.6875 52.0186 55.04 50.3809C51.9424 42.4971 49.4033 31.6299 48.2227 21.1816C47.9307 18.6299 47.8164 18.2744 47.0801 17.792C46.5215 17.4111 45.417 17.3857 44.833 17.7539ZM39.2471 26.4121C41.0752 27.6182 41.1514 27.6563 41.8496 27.6563C42.8018 27.6563 43.2461 27.377 43.957 26.3106L44.5156 25.4727L44.6045 26.082C45.582 33.0645 47.5371 41.6084 49.5684 47.6641C50.7617 51.2568 52.8945 56.3984 53.8975 58.0996C54.0752 58.4043 54.1641 58.709 54.1133 58.7598C54.0498 58.8232 51.9678 59.6484 49.4922 60.5879C47.0166 61.54 44.8584 62.416 44.6934 62.5176C44.1855 62.8477 43.9062 63.457 43.9062 64.2188C43.9062 65.501 44.6045 66.1738 46.0518 66.3135C48.2353 66.5039 49.9365 67.4814 51.0283 69.1826C52.1709 70.96 52.1963 73.5625 51.1045 75.416C50.3809 76.6348 48.8193 77.79 47.3467 78.1836C46.5723 78.3867 44.7441 78.3613 43.5635 78.1074C36.4922 76.6475 30.6904 68.7637 26.4502 54.7988C24.7744 49.3018 23.2256 42.0654 22.3496 35.6797C22.2227 34.7656 22.1338 34.0039 22.1592 34.0039C22.1719 34.0039 22.7939 34.3975 23.543 34.8926C24.8125 35.7305 24.9268 35.7812 25.5996 35.7812C26.3994 35.7812 26.9961 35.502 27.3516 34.9561C27.4658 34.7783 27.8721 33.3945 28.2529 31.8838C28.6338 30.3604 28.9512 29.1035 28.9766 29.0908C28.9893 29.0781 29.9033 29.6621 31.0078 30.3857C32.9629 31.6807 33.0264 31.7188 33.7246 31.7188C34.5498 31.7188 35.1465 31.4268 35.5019 30.8428C35.6162 30.6523 36.0225 29.2432 36.4033 27.7324C36.8603 25.8535 37.1269 25.0156 37.2285 25.0791C37.3047 25.1299 38.2187 25.7266 39.2471 26.4121ZM74.8193 56.7158C75.7588 57.1475 76.8506 58.1123 77.4346 59.0264C78.6279 60.9053 78.6152 63.6475 77.3711 65.4502L76.9775 66.0342L67.456 69.9443C62.2256 72.1025 57.4648 74.0576 56.9062 74.2988L55.8779 74.7305L55.9795 74.2607C56.1826 73.3721 56.1064 70.9346 55.8398 69.8555C55.3574 67.9131 54.1133 65.8945 52.5898 64.5869L52.0566 64.1299L62.2891 60.1689C72.1787 56.3604 72.5596 56.2207 73.2578 56.2715C73.7275 56.3096 74.2988 56.4619 74.8193 56.7158Z" fill="white"/>
<path d="M33.8262 37.9395C30.9062 39.1201 28.4053 40.1865 28.2656 40.3135C27.8467 40.6943 27.6562 41.1895 27.6562 41.9004C27.6562 43.1191 28.4307 43.9062 29.624 43.9062C30.1572 43.9062 31.1602 43.5508 35.5273 41.8115C38.4092 40.6562 40.9102 39.6279 41.0752 39.5264C41.5957 39.1836 41.875 38.5742 41.875 37.8125C41.875 36.5303 41.1133 35.7686 39.8438 35.7939C39.2471 35.8066 38.3584 36.124 33.8262 37.9395Z" fill="white"/>
<path d="M35.8574 46.0645C32.9375 47.2451 30.4365 48.3115 30.2969 48.4385C29.8779 48.8193 29.6875 49.3145 29.6875 50.0254C29.6875 51.2568 30.4619 52.0312 31.6807 52.0312C32.252 52.0312 33.1406 51.7139 37.584 49.9365C40.4531 48.7812 42.9414 47.7529 43.1064 47.6387C43.627 47.3086 43.9062 46.6992 43.9062 45.9375C43.9062 44.6553 43.1445 43.8936 41.875 43.9189C41.2783 43.9316 40.3896 44.249 35.8574 46.0645Z" fill="white"/>
<path d="M61.0703 23.8477C60.8418 23.9873 60.5498 24.2793 60.4102 24.5078C60.1689 24.9141 60.1562 25.168 60.1562 35.7812C60.1562 46.3945 60.1689 46.6484 60.4102 47.0547C60.791 47.6641 61.3623 47.9688 62.1875 47.9688C63.0127 47.9688 63.584 47.6641 63.9648 47.0547C64.1807 46.6992 64.2188 46.4072 64.2188 45.2646V43.9062H66.6055C69.2588 43.9062 69.5508 43.8301 70.0586 42.9922C70.4014 42.4209 70.4014 41.3291 70.0586 40.7578C69.5508 39.9199 69.2588 39.8438 66.6055 39.8438H64.2188V37.8125H67.3672C70.8711 37.8125 71.2393 37.749 72.75 36.9619C74.3242 36.1367 75.6572 34.4609 76.2031 32.6201C76.5332 31.5029 76.4824 29.624 76.0889 28.4561C75.4922 26.7041 74.2861 25.2441 72.7373 24.4316C71.1631 23.6191 71.0107 23.5938 66.0088 23.5938C61.7178 23.5938 61.4639 23.6064 61.0703 23.8477ZM70.376 27.9482C72.3564 28.8242 72.8516 31.3633 71.3154 32.8232C70.4902 33.5977 70.1602 33.6738 67.0498 33.7246L64.2188 33.7754V27.6309L67.0498 27.6816C69.3857 27.7197 69.957 27.7705 70.376 27.9482Z" fill="white"/>
</svg>
