<svg width="100" height="100" viewBox="0 0 100 100" fill="none" xmlns="http://www.w3.org/2000/svg">
<path d="M100 50C100 77.6142 77.6142 100 50 100C22.3858 100 0 77.6142 0 50C0 22.3858 22.3858 0 50 0C77.6142 0 100 22.3858 100 50Z" fill="#454887"/>
<path d="M48.8828 17.7666C48.5273 18.0078 47.8799 19.2012 44.2363 26.501C41.9004 31.1475 39.958 35.1338 39.9199 35.3623C39.7803 35.9717 40.0469 36.7207 40.5166 37.1396C40.7578 37.3301 42.5479 38.2949 44.5156 39.2725L48.0957 41.0498V46.8643C48.0957 52.1836 48.1211 52.7168 48.3242 53.0723C48.8447 53.9482 50.165 54.2529 51.0791 53.6816C51.4854 53.4277 51.9297 52.6152 55.7637 44.9346C58.0869 40.2881 60.042 36.3018 60.0801 36.0732C60.2197 35.4639 59.9531 34.7148 59.4834 34.2959C59.2422 34.1055 57.4521 33.1406 55.4844 32.1631L51.9043 30.3857V24.5459C51.9043 19.0361 51.8916 18.6807 51.6631 18.3379C51.2695 17.7539 50.7871 17.5 50 17.5C49.5049 17.5 49.1748 17.5889 48.8828 17.7666ZM48.4258 32.8232C48.6035 33.0645 49.6826 33.6865 51.9805 34.8545C53.7832 35.7812 55.3193 36.5557 55.3828 36.5684C55.4336 36.5938 54.6846 38.2188 53.707 40.1611L51.917 43.7158V41.418C51.9043 39.2471 51.8916 39.0947 51.6123 38.6885C51.3838 38.333 50.749 37.9648 48.0322 36.5811C46.2168 35.6543 44.6807 34.8799 44.6172 34.8672C44.5664 34.8418 45.3027 33.2295 46.2676 31.2998L48.0322 27.7705L48.0957 30.1191C48.1465 32.2266 48.1846 32.4932 48.4258 32.8232Z" fill="white"/>
<path d="M27.6816 26.209C26.7803 26.666 26.3994 27.834 26.8311 28.8115C27.0977 29.3955 27.3516 29.5605 30.7793 31.3887C32.7979 32.4678 33.1406 32.6074 33.7119 32.6074C35.1338 32.6074 36.0479 31.2363 35.4766 29.9033C35.3877 29.6748 35.1973 29.3955 35.0576 29.2686C34.918 29.1543 33.585 28.3799 32.0869 27.5801C29.1035 25.9551 28.5322 25.7773 27.6816 26.209Z" fill="white"/>
<path d="M68.2178 27.415C66.7578 28.1895 65.374 28.9639 65.1582 29.1289C64.5869 29.5479 64.2949 30.2334 64.3965 30.9189C64.5361 31.998 65.2471 32.6074 66.3389 32.6074C66.8721 32.6074 67.291 32.417 69.8428 31.0459C71.7344 30.043 72.8389 29.3701 73.0039 29.1416C73.1436 28.9385 73.2959 28.5322 73.3213 28.2402C73.4609 27.0088 72.75 26.1328 71.5439 26.0439C70.9092 25.9932 70.7695 26.0439 68.2178 27.415Z" fill="white"/>
<path d="M25.9297 35.959C25.7139 36.0605 25.3711 36.3398 25.1807 36.5938C24.5586 37.4062 24.7744 38.7266 25.625 39.3486C25.9424 39.5898 31.7568 40.8594 32.5059 40.8594C33.1406 40.8594 33.8262 40.415 34.1182 39.8057C34.2705 39.501 34.3848 39.0947 34.3848 38.8916C34.3848 38.3457 33.9277 37.5205 33.4961 37.2539C33.0898 37.0127 27.3643 35.7812 26.7041 35.7812C26.501 35.7939 26.1455 35.8701 25.9297 35.959Z" fill="white"/>
<path d="M69.7412 36.4287C66.7705 37.0635 66.4531 37.1777 65.9453 37.8633C65.5771 38.3457 65.5771 39.4375 65.9453 39.9326C66.3389 40.4531 66.9863 40.8594 67.4688 40.8594C67.9893 40.8594 73.918 39.6406 74.248 39.4629C74.3877 39.3867 74.6416 39.1328 74.832 38.8916C75.0986 38.5361 75.1748 38.2949 75.1875 37.749C75.1875 36.9746 74.959 36.5557 74.248 36.0605C73.6641 35.667 73.1436 35.7051 69.7412 36.4287Z" fill="white"/>
<path d="M27.0469 46.0518C26.5645 46.1787 26.0693 46.5977 25.8027 47.1055C25.5234 47.6387 25.5488 59.2803 25.8154 60.3467C26.0693 61.2861 26.501 62.251 27.0215 63.0127C27.25 63.3428 27.4023 63.6094 27.377 63.6348C27.3643 63.6475 26.9199 63.9141 26.3994 64.2188C25.2187 64.9043 23.5684 66.4658 22.7051 67.7227C20.6611 70.668 19.4297 75.416 19.5566 79.8848L19.5947 81.4971L20.1279 82.0049L20.6738 82.5L46.8262 82.4365L47.2959 81.9541L47.7783 81.4844L47.7656 79.1611C47.7529 74.8574 46.8008 71.125 44.9727 68.1924C44.1348 66.8467 42.2178 64.917 40.9863 64.2188C40.4658 63.9141 40.0215 63.6475 39.9961 63.6348C39.9707 63.6221 40.1865 63.2539 40.4658 62.8223C41.6211 61.0322 41.7734 60.1436 41.7227 55.6494C41.6846 52.1455 41.6719 52.082 41.3418 51.1426C40.6562 49.2637 39.2979 47.7148 37.6221 46.877C36.0098 46.0771 35.7432 46.0391 31.4014 45.9883C29.2305 45.9629 27.2754 46.001 27.0469 46.0518ZM35.54 50.2666C36.8857 50.9014 37.8125 52.2725 37.8125 53.6309V54.2148L35.1211 54.1641C32.6328 54.126 32.3662 54.1006 31.8457 53.834C30.4619 53.1611 29.7002 52.0947 29.5859 50.6729L29.5225 49.8477L32.1758 49.8984C34.7148 49.9365 34.8545 49.9492 35.54 50.2666ZM31.2109 57.8076C31.7568 57.9854 32.5439 58.0488 34.8799 58.0869L37.8506 58.1504L37.7744 58.874C37.6602 60.1816 36.8857 61.3115 35.6797 61.8955C35.0322 62.2129 34.8164 62.251 33.6865 62.251C32.5566 62.251 32.3408 62.2129 31.6934 61.8955C30.9062 61.5146 30.3477 60.9561 29.916 60.1182C29.7002 59.7119 29.624 59.3057 29.5859 58.3408L29.5352 57.084L30.0176 57.3379C30.2969 57.4775 30.8301 57.6934 31.2109 57.8076ZM36.4795 66.5547C36.8984 66.6689 37.7109 66.9863 38.2822 67.2656C41.4561 68.8145 43.2842 72.3311 43.8428 77.8916L43.9189 78.6914H33.6865C24.8506 78.6914 23.4668 78.666 23.4668 78.5137C23.4668 78.4121 23.5557 77.6758 23.6572 76.876C24.1523 73.0547 25.3584 70.2617 27.2373 68.5225C28.4307 67.418 29.751 66.7705 31.5283 66.4277C32.6582 66.2119 35.4258 66.2754 36.4795 66.5547Z" fill="white"/>
<path d="M64.9805 46.0644C63.4697 46.2549 61.9082 46.9531 60.7783 47.9561C59.9658 48.667 59.0771 50.0127 58.6582 51.1426C58.3281 52.082 58.3154 52.1455 58.2773 55.6494C58.2266 60.1436 58.3789 61.0322 59.5342 62.8223C59.8135 63.2539 60.0293 63.6221 60.0039 63.6348C59.9785 63.6475 59.5342 63.9141 59.0137 64.2188C57.7695 64.9297 55.8398 66.8594 55.0146 68.1924C53.2754 71.0234 52.3359 74.5781 52.1963 78.8818C52.1201 81.2432 52.1582 81.4717 52.8564 82.1191L53.1992 82.4365L79.3262 82.5L79.8721 82.0049L80.4053 81.4971L80.3926 79.1738C80.3799 74.8701 79.4404 71.1758 77.6123 68.1924C76.5967 66.5547 73.9053 64.0791 72.6738 63.6729C72.6104 63.6475 72.7373 63.3682 72.9658 63.0381C73.499 62.251 73.9307 61.2988 74.1846 60.3467C74.3369 59.7246 74.375 58.582 74.375 53.4785V47.3721L74.0957 46.9531C73.9307 46.7246 73.6387 46.4072 73.4482 46.2676C73.1055 46.0137 72.9277 46.001 69.4492 45.9756C67.4434 45.9756 65.4375 46.0137 64.9805 46.0644ZM70.4141 50.6855C70.2998 52.0947 69.5381 53.1611 68.1543 53.834C67.6338 54.1006 67.3672 54.126 64.8916 54.1641L62.1875 54.2148V53.6309C62.1875 51.9551 63.5586 50.3428 65.2725 50C65.5645 49.9492 66.8594 49.8984 68.1416 49.8857L70.4775 49.873L70.4141 50.6855ZM70.3252 59.4961C69.8301 61.3242 68.1416 62.416 65.9834 62.2891C63.8887 62.1621 62.3906 60.8164 62.2256 58.874L62.1494 58.1504L65.1201 58.0996C67.9512 58.0488 68.1416 58.0234 69.1064 57.6934C69.665 57.5029 70.1855 57.2871 70.249 57.2236C70.4268 57.0459 70.4902 58.874 70.3252 59.4961ZM68.1924 66.3896C72.1025 66.999 74.6924 69.6396 75.8477 74.2227C76.1016 75.251 76.5332 77.9043 76.5332 78.5137C76.5332 78.666 75.1494 78.6914 66.3135 78.6914H56.0811L56.1572 77.8916C56.7539 71.8994 58.7598 68.4209 62.4668 66.9229C63.9902 66.3008 66.2627 66.0977 68.1924 66.3896Z" fill="white"/>
</svg>
