<svg width="100" height="100" viewBox="0 0 100 100" fill="none" xmlns="http://www.w3.org/2000/svg">
<path d="M100 50C100 77.6142 77.6142 100 50 100C22.3858 100 0 77.6142 0 50C0 22.3858 22.3858 0 50 0C77.6142 0 100 22.3858 100 50Z" fill="#454887"/>
<path d="M32.124 18.0889C28.6709 18.584 25.5859 20.9453 24.2148 24.1699C23.377 26.1504 23.4277 24.4238 23.4277 50.5C23.4277 76.5762 23.377 74.8496 24.2148 76.8301C25.2051 79.1533 26.9824 80.9814 29.293 82.0352C31.1719 82.9111 31.1973 82.9111 37.0117 82.9619C40.6299 83 42.4326 82.9746 42.75 82.8857C44.5527 82.3398 45.1113 79.8896 43.7148 78.5947C43.0293 77.9473 42.8135 77.9219 37.8623 77.9219C35.2471 77.9219 32.9365 77.8711 32.5557 77.7949C31.0576 77.5156 29.6865 76.4365 28.9756 75.002L28.5693 74.1768V26.8232L28.9756 25.998C29.6865 24.5635 31.0576 23.4844 32.5557 23.2051C33 23.1289 38.8652 23.0781 49.1357 23.0781C59.4062 23.0781 65.2715 23.1289 65.7158 23.2051C67.2139 23.4844 68.585 24.5635 69.2959 25.998L69.7021 26.8232L69.7656 35.583C69.8164 41.7783 69.8672 44.4316 69.9814 44.6729C70.8955 46.7168 73.5996 46.8564 74.6025 44.8887C74.8311 44.4316 74.8438 44.0127 74.8438 35.6465C74.8438 28.042 74.8184 26.7598 74.6406 25.9727C73.79 22.2402 71.124 19.46 67.29 18.3047C66.5791 18.0889 65.5381 18.0762 49.5166 18.0508C40.1602 18.0381 32.3398 18.0635 32.124 18.0889Z" fill="white"/>
<path d="M34.9805 33.5137C34.6758 33.6787 34.2441 34.0215 34.041 34.2881C33.6729 34.7451 33.6475 34.8594 33.6475 35.7734C33.6475 36.6875 33.6729 36.8018 34.041 37.2588C34.2441 37.5254 34.6758 37.8682 34.9805 38.0205L35.5391 38.3125H49.0977C61.0566 38.3125 62.7197 38.2871 63.1387 38.1221C65.208 37.2461 65.208 34.3008 63.1387 33.4248C62.7197 33.2598 61.0566 33.2344 49.0977 33.2344H35.5391L34.9805 33.5137Z" fill="white"/>
<path d="M34.9805 43.6699C34.6758 43.835 34.2441 44.1777 34.041 44.4443C33.6729 44.9014 33.6475 45.0156 33.6475 45.9297C33.6475 46.8438 33.6729 46.958 34.041 47.415C34.2441 47.6816 34.6758 48.0244 34.9805 48.1768L35.5391 48.4688H49.0977C61.0566 48.4688 62.7197 48.4434 63.1387 48.2783C65.208 47.4023 65.208 44.457 63.1387 43.5811C62.7197 43.416 61.0566 43.3906 49.0977 43.3906H35.5391L34.9805 43.6699Z" fill="white"/>
<path d="M72.3682 52.7217C71.4668 52.9248 70.5527 53.3184 69.7656 53.8389C68.9658 54.3594 54.5693 68.7432 54.2773 69.2891C54.1504 69.543 53.3506 72.0312 52.5 74.8115C51.1035 79.4072 50.9639 79.9658 51.0019 80.6768C51.04 81.3242 51.1162 81.5527 51.4336 81.9463C52.0049 82.6572 52.792 83.0381 53.5791 82.9492C54.1631 82.8984 62.3769 80.6768 64.3066 80.0547L65.1318 79.7881L72.4062 72.5391C80.1123 64.8711 80.6328 64.2744 81.2041 62.5986C81.458 61.875 81.5088 61.4814 81.5088 60.1484C81.5088 58.2314 81.2549 57.3428 80.29 55.8955C78.5635 53.3184 75.3896 52.0488 72.3682 52.7217ZM74.9453 57.7998C76.6719 58.5234 77.04 60.7578 75.6435 62.0781L75.2754 62.4336L73.5107 60.6562L71.7461 58.8916L72.1143 58.4854C72.876 57.6855 73.9932 57.4062 74.9453 57.7998ZM67.0361 70.6855L62.3389 75.3701L59.8125 76.0684C58.416 76.4619 57.2607 76.7539 57.248 76.7412C57.2353 76.7285 57.5654 75.5986 57.9844 74.2402L58.7334 71.7646L63.4561 67.1055L68.1787 62.459L71.7334 65.9883L67.0361 70.6855Z" fill="white"/>
<path d="M34.9805 53.8262C34.6758 53.9912 34.2441 54.334 34.041 54.6006C33.6729 55.0576 33.6475 55.1719 33.6475 56.0859C33.6475 57 33.6729 57.1143 34.041 57.5713C34.2441 57.8379 34.6758 58.1807 34.9805 58.333L35.5391 58.625H43.9941C51.9414 58.625 52.4619 58.5996 52.9443 58.3838C54.9375 57.457 54.9375 54.7148 52.9443 53.7881C52.4619 53.5723 51.9414 53.5469 43.9941 53.5469H35.5391L34.9805 53.8262Z" fill="white"/>
</svg>
