<svg width="100" height="100" viewBox="0 0 100 100" fill="none" xmlns="http://www.w3.org/2000/svg">
<path d="M100 50C100 77.6142 77.6142 100 50 100C22.3858 100 0 77.6142 0 50C0 22.3858 22.3858 0 50 0C77.6142 0 100 22.3858 100 50Z" fill="#454887"/>
<path d="M47.2463 17.2793C47.0432 17.3936 46.5227 17.7998 46.1038 18.1934C40.467 23.4238 33.7639 26.0391 25.093 26.3945C22.6809 26.4961 22.5032 26.5342 21.97 26.9912C21.0686 27.791 21.1067 27.5244 21.0305 34.0752C20.9163 43.4189 21.1067 47.583 21.8684 52.3564C23.5315 62.7666 28.1653 70.6377 35.884 76.1221C38.5247 78.001 41.8381 79.7783 45.342 81.1875C47.2083 81.9365 47.4495 82 48.3254 82C49.1887 82 49.4426 81.9365 51.1184 81.251C53.3274 80.3623 55.6633 79.2578 57.2502 78.3691C67.1653 72.7324 72.8782 64.252 74.7825 52.3438C75.5442 47.583 75.7346 43.4062 75.6204 34.0752C75.5442 27.5244 75.5823 27.791 74.6809 26.9912C74.1477 26.5342 73.97 26.4961 71.5579 26.3945C62.9124 26.0518 56.1584 23.4111 50.5979 18.2441C50.1536 17.8252 49.6077 17.3809 49.3792 17.2666C48.8586 17.0127 47.7415 17.0127 47.2463 17.2793ZM49.5569 23.5508C55.0159 27.9307 61.884 30.4824 69.5393 30.9648L70.885 31.0537L70.9739 36.1572C71.1262 45.1455 70.7073 50.2617 69.3997 55.4414C67.4573 63.1982 63.217 69.0381 56.425 73.3799C54.9397 74.332 51.093 76.249 49.4426 76.8711L48.3254 77.2773L47.2209 76.8711C45.2786 76.1475 41.3557 74.1416 39.5657 72.9482C33.1672 68.6826 29.1428 62.9697 27.2512 55.4414C25.9436 50.2617 25.5247 45.1455 25.677 36.1572L25.7659 31.0537L27.1116 30.9648C31.5042 30.6855 36.303 29.5557 39.8704 27.9561C42.3333 26.8516 45.5071 24.8838 47.3098 23.3604C47.7668 22.9795 48.1985 22.6621 48.2874 22.6621C48.3762 22.6494 48.9475 23.0557 49.5569 23.5508Z" fill="white"/>
<path d="M56.8313 41.1338C56.552 41.248 54.3049 43.4062 50.7756 46.9355L45.1516 52.5469L42.5872 49.9824C39.7815 47.2021 39.7307 47.1641 38.4612 47.3164C37.1409 47.4561 36.2776 48.8271 36.6458 50.2109C36.7727 50.6934 37.2297 51.2139 40.2385 54.248C42.4729 56.4951 43.8694 57.8027 44.1995 57.9551C44.8215 58.2471 45.5198 58.2598 46.1418 58.0059C46.4592 57.8662 48.6428 55.7715 53.0608 51.3662C60.1321 44.3076 60.2463 44.168 60.0813 43C59.8655 41.4385 58.2532 40.5244 56.8313 41.1338Z" fill="white"/>
</svg>
