<svg width="100" height="100" viewBox="0 0 100 100" fill="none" xmlns="http://www.w3.org/2000/svg">
<path d="M100 50C100 77.6142 77.6142 100 50 100C22.3858 100 0 77.6142 0 50C0 22.3858 22.3858 0 50 0C77.6142 0 100 22.3858 100 50Z" fill="#454887"/>
<path d="M24.5459 17.7031C24.0635 17.8047 23.1113 18.1602 22.4512 18.4775C21.4482 18.96 21.0801 19.2266 20.1533 20.1533C19.2266 21.0801 18.96 21.4482 18.4775 22.4512C17.5762 24.3047 17.4746 25.041 17.5254 29.2686L17.5635 32.8232L17.9062 33.3311C18.0967 33.6104 18.4648 33.9785 18.7314 34.1436L19.2139 34.4482L30.3223 34.5244L30.3477 54.291C30.3857 75.8604 30.335 74.1846 31.084 76.1777C31.9219 78.4248 34.3975 80.9004 36.6445 81.7383C38.5361 82.4492 38.3711 82.4365 45.6328 82.4365H52.3613L52.8818 82.0938C53.6689 81.5732 53.999 80.9512 53.999 79.9609C53.999 78.9707 53.6689 78.3486 52.8818 77.8281L52.374 77.4854L39.2725 77.3584L38.4219 76.9521C37.2412 76.3936 36.5049 75.6826 35.9336 74.5273L35.4639 73.5625L35.3369 24.7998L34.9434 23.6826L34.5625 22.5781L68.6113 22.6416L69.5762 23.1113C70.7314 23.6826 71.4424 24.419 72.001 25.5996L72.4072 26.4502L72.5342 46.5215L72.8769 47.042C73.3975 47.8291 74.0195 48.1592 75.0098 48.1592C76 48.1592 76.6221 47.8291 77.1426 47.042L77.4853 46.5215V36.3018C77.4853 25.2061 77.5107 25.752 76.7871 23.8223C76.4189 22.8447 75.4668 21.3975 74.5654 20.5088C73.3086 19.2266 71.874 18.4014 69.8047 17.7793C69.1699 17.5762 67.2783 17.5635 47.2705 17.5381C28.4053 17.5254 25.3076 17.5381 24.5459 17.7031ZM28.0752 22.9463C28.8242 23.3018 29.5859 24.0762 29.9668 24.8379C30.2207 25.3711 30.2588 25.6504 30.2969 27.4277L30.3477 29.4336H22.5781V27.6816C22.5781 26.5391 22.6416 25.7139 22.7559 25.333C23.0986 24.2031 24.1523 23.124 25.2822 22.7559C26.0312 22.5147 27.3643 22.6035 28.0752 22.9463Z" fill="white"/>
<path d="M42.1543 30.5889C41.5576 30.7666 40.7705 31.5918 40.5928 32.252C40.3008 33.3818 40.7451 34.5625 41.71 35.1592L42.1924 35.4639L53.8086 35.502C62.3398 35.5273 65.5645 35.502 65.958 35.3877C67.0244 35.0957 67.8877 33.8135 67.7354 32.7217C67.6338 31.9854 67.0498 31.0967 66.4404 30.7793C65.9326 30.5127 65.8311 30.5127 54.2529 30.4873C47.1309 30.4746 42.4082 30.5127 42.1543 30.5889Z" fill="white"/>
<path d="M42.1543 40.7451C41.5576 40.9229 40.7705 41.7481 40.5928 42.4082C40.3008 43.5381 40.7451 44.7188 41.71 45.3154L42.1924 45.6201L53.8086 45.6582C62.3398 45.6836 65.5645 45.6582 65.958 45.5439C67.0244 45.252 67.8877 43.9697 67.7354 42.8779C67.6338 42.1416 67.0498 41.2529 66.4404 40.9356C65.9326 40.6689 65.8311 40.6689 54.2529 40.6436C47.1309 40.6309 42.4082 40.6689 42.1543 40.7451Z" fill="white"/>
<path d="M42.1543 50.9014C41.5576 51.0791 40.7705 51.917 40.5928 52.5645C40.3008 53.6943 40.7451 54.875 41.71 55.4717C42.1924 55.7764 42.2432 55.7764 46.0644 55.8145C48.7686 55.8398 50.1016 55.8145 50.4697 55.7002C51.5488 55.4082 52.3994 54.126 52.2471 53.0342C52.1455 52.2979 51.5615 51.4092 50.9521 51.0918C50.4697 50.8379 50.2285 50.8252 46.5088 50.7998C44.2617 50.7871 42.3955 50.8379 42.1543 50.9014Z" fill="white"/>
<path d="M59.7119 53.542C59.0518 53.8594 56.2969 56.6397 56.0303 57.2617C55.7256 58.0107 55.8018 58.544 56.4238 59.9912C56.7412 60.7275 57.1348 61.832 57.3125 62.4287C57.7314 63.8379 57.6807 64.7393 57.0459 66.8848C56.1953 69.7539 56.043 71.3535 56.4238 73.207C56.7412 74.7686 57.249 75.6826 58.4297 76.8506C59.6484 78.0693 60.791 78.7041 63.584 79.707C65.9072 80.5449 66.1992 80.6973 67.1514 81.5479C68.5859 82.8301 69.7666 82.8174 71.2139 81.5225C72.1533 80.6846 72.2676 80.6211 74.9209 79.6309C77.625 78.6152 78.7422 77.9932 79.9102 76.8506C81.5098 75.2764 82.208 73.3467 82.0811 70.8203C82.0049 69.5381 81.9414 69.208 81.0273 65.8691C80.8623 65.2725 80.7354 64.4981 80.7354 64.1426C80.7227 63.3174 81.2051 61.6035 81.9414 59.9404C82.5381 58.544 82.6143 58.0107 82.3096 57.2617C82.043 56.6397 79.2881 53.8594 78.6279 53.542C78.1455 53.3135 77.6504 53.3008 69.1699 53.3008C60.6895 53.3008 60.1943 53.3135 59.7119 53.542ZM76.7744 58.5566C76.876 58.6836 76.8379 58.9248 76.6094 59.5596C76.1396 60.8037 75.7715 62.3399 75.6826 63.4443C75.5811 64.7393 75.7969 66.1357 76.4189 68.2686C77.2314 71.0615 77.2188 72.293 76.3555 73.207C75.8604 73.7402 75.0098 74.1846 72.9785 74.9336C72.1025 75.2637 70.8965 75.7588 70.2871 76.0508L69.1699 76.5713L68.0654 76.0508C67.4434 75.7715 66.1484 75.2383 65.1709 74.8701C63.0254 74.083 62.6064 73.8799 62.0225 73.334C61.1211 72.4834 61.0957 71.125 61.9209 68.2813C62.9619 64.7012 62.9111 62.708 61.7432 59.5977C61.4893 58.9248 61.4512 58.6963 61.5654 58.5566C61.7813 58.29 76.5586 58.29 76.7744 58.5566Z" fill="white"/>
</svg>
