<svg width="100" height="100" viewBox="0 0 100 100" fill="none" xmlns="http://www.w3.org/2000/svg">
<path d="M100 50C100 77.6142 77.6142 100 50 100C22.3858 100 0 77.6142 0 50C0 22.3858 22.3858 0 50 0C77.6142 0 100 22.3858 100 50Z" fill="#454887"/>
<path d="M32.6675 16.7359C30.1284 17.4179 28.068 19.5653 27.5457 22.0754C27.4441 22.5832 27.4006 25.3545 27.4296 30.5489C27.4731 38.0792 27.4731 38.2678 27.7778 38.6596C28.3437 39.4286 28.808 39.6608 29.7221 39.6608C30.6362 39.6608 31.1005 39.4286 31.6664 38.6596C31.9565 38.2678 31.9711 38.0502 32.0436 30.4473C32.1161 22.8444 32.1307 22.6267 32.4208 22.235C32.5804 22.0173 32.8997 21.6981 33.1173 21.5385C33.509 21.2338 33.6396 21.2338 46.7126 21.1903L59.9016 21.1613V25.0498C59.9016 29.3446 59.9887 29.9685 60.7867 31.4775C61.338 32.4931 62.6149 33.7554 63.645 34.2778C65.0815 35.0032 65.7344 35.0903 69.9421 35.0903H73.8306L73.8016 55.2438C73.7581 75.3538 73.7581 75.4119 73.4534 75.8036C73.2938 76.0213 72.9746 76.3405 72.7569 76.5001C72.3652 76.8048 72.1766 76.8048 62.2231 76.8773C52.2697 76.9499 52.0811 76.9499 51.6893 77.2546C50.9203 77.8204 50.6882 78.2847 50.6882 79.1988C50.6882 80.1129 50.9203 80.5772 51.6893 81.1431C52.0811 81.4478 52.2407 81.4478 62.1215 81.4913C68.97 81.5203 72.4087 81.4768 72.931 81.3607C74.8173 80.969 76.805 79.46 77.6611 77.7769C78.5172 76.0938 78.4736 77.2836 78.4736 53.8654C78.4736 39.24 78.4301 32.2174 78.3285 31.9418C78.1254 31.4049 63.7321 16.9826 63.1372 16.7214C62.4408 16.4167 33.7847 16.4312 32.6675 16.7359ZM68.6508 30.4183C66.4163 30.4763 65.9956 30.4038 65.4007 29.9104C64.6607 29.2865 64.5446 28.8077 64.5446 26.5007V24.4259L70.4935 30.3747L68.6508 30.4183Z" fill="white"/>
<path d="M38.0651 30.6504C37.093 31.0712 36.5417 32.1884 36.7448 33.2766C36.8754 33.9586 37.6008 34.7566 38.2538 34.9452C38.6165 35.0613 41.2862 35.0903 46.292 35.0613C53.6047 35.0177 53.7933 35.0032 54.1851 34.713C54.9541 34.1472 55.1862 33.6829 55.1862 32.7688C55.1862 31.8547 54.9541 31.3904 54.1851 30.8245C53.7933 30.5198 53.6047 30.5198 46.1469 30.4908C40.0094 30.4618 38.4134 30.4908 38.0651 30.6504Z" fill="white"/>
<path d="M51.9942 42.2579C51.022 42.6787 50.4707 43.7959 50.6738 44.8841C50.8044 45.5661 51.5299 46.3641 52.1828 46.5527C52.5455 46.6688 55.2152 46.6978 60.221 46.6688C67.5337 46.6252 67.7223 46.6107 68.1141 46.3206C68.8831 45.7547 69.1152 45.2904 69.1152 44.3763C69.1152 43.4622 68.8831 42.9979 68.1141 42.432C67.7223 42.1273 67.5337 42.1273 60.0759 42.0983C53.9384 42.0693 52.3424 42.0983 51.9942 42.2579Z" fill="white"/>
<path d="M30.0124 44.4633C24.5423 45.1598 19.6817 48.1052 16.6928 52.5306C11.716 59.9013 12.6446 69.8257 18.8692 75.9632C20.6683 77.7333 21.8291 78.5749 23.7443 79.547C29.7657 82.5795 36.9624 82.0426 42.65 78.1686C44.1445 77.153 46.3499 74.904 47.3801 73.3951C51.6459 67.0545 51.6604 58.8566 47.4236 52.5596C44.7104 48.555 40.5317 45.7692 35.671 44.7245C34.6118 44.5069 31.028 44.3328 30.0124 44.4633ZM35.4534 49.4546C38.1086 50.1655 39.8787 51.1957 41.8375 53.1545C43.8108 55.1422 44.8265 56.9124 45.5519 59.6111C45.9872 61.2072 46.0307 64.5008 45.639 66.0533C43.419 74.875 33.9154 79.3874 25.8917 75.4118C22.9173 73.9319 20.4362 71.2912 19.1593 68.2442C18.4339 66.4741 18.1872 65.1682 18.2017 62.9483C18.2017 60.6268 18.3904 59.6256 19.1448 57.7394C20.4362 54.5038 23.3381 51.5294 26.4866 50.1945C28.634 49.2804 30.0994 49.0193 32.5515 49.0918C33.7268 49.1208 34.6699 49.2514 35.4534 49.4546Z" fill="white"/>
<path d="M26.4575 56.1869C24.9921 56.8254 24.6439 58.7696 25.7901 59.9159C26.7332 60.859 28.0681 60.859 29.0112 59.9159C30.8104 58.1167 28.7936 55.1713 26.4575 56.1869Z" fill="white"/>
<path d="M35.7435 56.1869C35.5113 56.303 33.0447 58.668 30.2734 61.4393C24.8324 66.9094 24.9049 66.8223 25.1516 68.1282C25.2822 68.8391 26.1528 69.7097 26.8637 69.8403C28.1696 70.0869 28.068 70.1595 33.5961 64.6459C37.2379 61.0186 38.7614 59.408 38.8775 59.0598C39.1967 58.0732 38.8485 57.0285 37.9634 56.3756C37.4701 56.0128 36.3238 55.9113 35.7435 56.1869Z" fill="white"/>
<path d="M35.7435 65.4729C34.2781 66.1114 33.9299 68.0556 35.0761 69.2019C36.0192 70.145 37.3541 70.145 38.2972 69.2019C40.0964 67.4027 38.0796 64.4573 35.7435 65.4729Z" fill="white"/>
<path d="M56.6372 53.8654C55.665 54.2862 55.1137 55.4034 55.3168 56.4916C55.4474 57.1736 56.1729 57.9716 56.8258 58.1602C57.174 58.2618 59.1473 58.3053 62.5425 58.2763C67.5047 58.2328 67.7368 58.2183 68.1141 57.9281C68.8831 57.3622 69.1152 56.8979 69.1152 55.9838C69.1152 55.0697 68.8831 54.6054 68.1141 54.0396C67.7368 53.7494 67.5192 53.7349 62.3974 53.7058C58.1897 53.6768 56.9854 53.7058 56.6372 53.8654Z" fill="white"/>
<path d="M56.6372 65.473C55.665 65.8937 55.1137 67.0109 55.3168 68.0992C55.4474 68.7811 56.1729 69.5791 56.8258 69.7677C57.174 69.8693 59.1473 69.9128 62.5425 69.8838C67.5047 69.8403 67.7368 69.8258 68.1141 69.5356C68.8831 68.9697 69.1152 68.5054 69.1152 67.5913C69.1152 66.6772 68.8831 66.2129 68.1141 65.6471C67.7368 65.3569 67.5192 65.3424 62.3974 65.3133C58.1897 65.2843 56.9854 65.3133 56.6372 65.473Z" fill="white"/>
</svg>
