<svg width="100" height="100" viewBox="0 0 100 100" fill="none" xmlns="http://www.w3.org/2000/svg">
<path d="M100 50C100 77.6142 77.6142 100 50 100C22.3858 100 0 77.6142 0 50C0 22.3858 22.3858 0 50 0C77.6142 0 100 22.3858 100 50Z" fill="#454887"/>
<path d="M24.9902 83L69.7412 82.9365L70.4902 82.6445C72.6992 81.8066 74.248 80.1309 74.8066 77.9727C74.9844 77.2617 75.0098 74.4434 75.0098 50.5C75.0098 26.5566 74.9844 23.7383 74.8066 23.0273C74.1719 20.5771 72.0645 18.584 69.627 18.1396C69.1064 18.0381 62.0352 18 46.9277 18H24.9902V83ZM69.208 21.9482C69.8301 22.1133 70.668 22.875 70.96 23.5225C71.1885 24.0049 71.2012 25.1602 71.2012 50.5C71.2012 75.8398 71.1885 76.9951 70.96 77.4775C70.668 78.125 69.8301 78.8867 69.208 79.0518C68.8779 79.1533 62.4414 79.1914 48.7686 79.1914H28.7988V21.8086H48.7686C62.4414 21.8086 68.8779 21.8467 69.208 21.9482Z" fill="white"/>
<path d="M48.4131 27.2168C41.2783 27.9912 35.4766 33.4756 34.3086 40.5342C34.0674 42.0576 34.1182 44.8633 34.4355 46.2852C36.0479 53.6738 42.4463 58.8916 49.9238 58.8916C51.8154 58.8916 52.793 58.7646 54.3926 58.2949C58.8613 57 62.3906 53.9785 64.4219 49.6748C66.0596 46.2344 66.3135 41.7783 65.0947 38.1348C64.2695 35.6846 63.0889 33.7549 61.2353 31.8887C58.9756 29.6035 56.4619 28.2197 53.3008 27.5088C52.2344 27.2803 49.4414 27.1025 48.4131 27.2168ZM50.6475 31.4189C51.2695 31.9775 52.1328 33.7041 52.5898 35.2783C52.8945 36.3701 53.3389 38.833 53.4912 40.3057L53.5674 41.1055H46.4326L46.5088 40.3057C46.6611 38.833 47.1055 36.3701 47.4102 35.2783C47.8672 33.7041 48.7305 31.9775 49.3525 31.4189C49.6445 31.165 49.9365 30.9492 50 30.9492C50.0635 30.9492 50.3555 31.165 50.6475 31.4189ZM44.249 32.6885C43.4238 35.2656 43.1191 36.6621 42.8398 39.0742C42.7256 40.0137 42.6367 40.8643 42.6367 40.9404C42.6367 41.0674 42.0908 41.1055 40.3516 41.1055H38.0664L38.1426 40.75C38.8281 37.5508 40.6816 34.7705 43.2461 33.0439C44.1729 32.4219 44.3506 32.3584 44.249 32.6885ZM56.8682 33.1328C59.4326 34.9229 61.1719 37.5762 61.8574 40.75L61.9336 41.1055H57.376L57.2998 40.3691C57.0586 38.0205 56.792 36.4336 56.4111 34.9229C56.1699 33.9961 55.916 33.1201 55.8398 32.9805C55.6875 32.6885 55.6748 32.4727 55.8145 32.4727C55.8779 32.4727 56.3477 32.7646 56.8682 33.1328ZM42.7002 45.7646C42.9541 48.5068 43.335 50.5508 43.9189 52.3662C44.1348 53.0264 44.2871 53.5977 44.249 53.623C44.1094 53.7627 42.2051 52.3154 41.3291 51.3887C40.2373 50.2461 39.6279 49.3701 38.9932 47.999C38.625 47.2119 38.0664 45.3965 38.0664 45.0156C38.0664 44.9648 39.0947 44.9141 40.3389 44.9141H42.6113L42.7002 45.7646ZM53.4785 45.7646C53.1104 49.8018 52.0947 53.0771 50.7363 54.626C50.2285 55.2227 49.7715 55.2227 49.2637 54.626C47.9053 53.0771 46.8896 49.8018 46.5215 45.7646L46.4326 44.9141H53.5674L53.4785 45.7646ZM61.9336 45.0156C61.9336 45.3965 61.375 47.2119 61.0068 47.999C60.3721 49.3701 59.7627 50.2461 58.6709 51.3887C57.7949 52.3154 55.8906 53.7627 55.751 53.623C55.7129 53.5977 55.8652 53.0264 56.0811 52.3662C56.665 50.5508 57.0459 48.5068 57.2998 45.7646L57.3887 44.9141H59.6611C60.9053 44.9141 61.9336 44.9648 61.9336 45.0156Z" fill="white"/>
<path d="M36.6699 67.0039H63.3301V63.1953H36.6699V67.0039Z" fill="white"/>
<path d="M40.2246 74.6211H59.7754V70.8125H40.2246V74.6211Z" fill="white"/>
</svg>
